<?xml version="1.0" encoding="utf-8"?>
<!-- Generator: Adobe Illustrator 24.0.1, SVG Export Plug-In . SVG Version: 6.00 Build 0)  -->
<svg version="1.1" id="DFIX" xmlns="http://www.w3.org/2000/svg" xmlns:xlink="http://www.w3.org/1999/xlink" x="0px" y="0px"
	 width="1024px" height="1024px" viewBox="0 0 1024 1024" style="enable-background:new 0 0 1024 1024;" xml:space="preserve">
<style type="text/css">
	.st0{fill:#434949;}
	.st1{fill:#8A92B2;}
	.st2{fill:#62688F;}
	.st3{fill:#454A75;}
</style>
<g>
	<path class="st0" d="M1012,406.5c-11.1,76.5-22.2,152.9-33.3,229.4c-21.1-21.1-42.3-42.3-63.4-63.4l-206,206L537.8,950l-0.4-0.4
		l-0.1,0.1l-25.4-25.4l-35.7-35.7l-35.8-35.8L335.8,748.2L259,824.9L81.2,1002.7L12,933.5L201.5,744l67.9-67.9
		c22.3-22.3,44.7-44.7,67-67c58.5,58.9,117,117.7,175.4,176.6c8.6,8.7,17.2,17.3,25.8,26l14-14.1l86.5-86.5l123.7-123.7l7.5-7.5
		l41.9-41.9l34.8-34.8c-21.1-21.2-42.3-42.3-63.4-63.4C859.1,428.7,935.5,417.6,1012,406.5z"/>
</g>
<g>
	<polygon class="st1" points="511.9,21.3 162,601.9 511.9,442.9 	"/>
	<path class="st2" d="M511.9,442.9v322.8c-58.5-58.9-117-117.8-175.4-176.6c-22.3,22.3-44.7,44.7-67,67l-5.8,5.8l-101.6-60
		L511.9,442.9z"/>
	<polygon class="st2" points="811.3,518 769.4,559.9 511.9,442.9 511.9,21.3 	"/>
	<path class="st3" d="M769.4,559.9l-7.5,7.5L638.3,691.1l-86.5,86.5l-14,14.1c-8.6-8.7-17.2-17.3-25.8-26V442.9L769.4,559.9z"/>
</g>
</svg>
