<?xml version="1.0" encoding="utf-8"?>
<!-- Generator: Adobe Illustrator 24.0.1, SVG Export Plug-In . SVG Version: 6.00 Build 0)  -->
<svg version="1.1" id="DFIX" xmlns="http://www.w3.org/2000/svg" xmlns:xlink="http://www.w3.org/1999/xlink" x="0px" y="0px"
	 width="1024px" height="1024px" viewBox="0 0 1024 1024" style="enable-background:new 0 0 1024 1024;" xml:space="preserve">
<style type="text/css">
	.st0{fill:#F4C301;}
	.st1{fill:#181919;}
	.st2{fill:#ACADAE;}
	.st3{fill:#CAA304;}
</style>
<g>
	<path class="st0" d="M1012,342.4c-11.1,76.5-22.2,152.9-33.3,229.4c-21.1-21.1-42.3-42.3-63.4-63.4L753,670.6L569.5,854.1
		l-31.7,31.7l-0.4-0.4l-0.1,0.1L403.8,752.1l-0.8-0.7L383.8,732l-17.8-17.8l-30.2-30.2l-1.6,1.6L306.8,713L272,747.8l-3.5,3.5
		l-0.6,0.6L81.2,938.6L12,869.4L129.3,752l0.7-0.7L269.4,612l2.6-2.6c9.4-9.4,18.7-18.7,28.1-28.1c0,0,0.1-0.1,0.1-0.2
		c2.5-2.5,4.9-4.9,7.4-7.4c0.1-0.1,0.2-0.2,0.3-0.3c9.5-9.5,19-19,28.5-28.5c9.4,9.5,18.8,18.9,28.2,28.3c0.1,0.1,0.3,0.3,0.4,0.4
		c11.1,11.2,22.1,22.3,33.2,33.4c22.9,23.1,45.9,46.2,68.8,69.3c23.5,23.7,47.1,47.4,70.6,71.1l224.3-224.3l39.6-39.6l44.5-44.5
		c-21.1-21.2-42.3-42.3-63.4-63.4C859.1,364.6,935.5,353.5,1012,342.4z"/>
</g>
<g id="layer101">
	<path class="st1" d="M758.8,329.4l-6.4,6.6v176.1L537.8,726.8c-23.5-23.7-47.1-47.4-70.6-71.1c-22.9-23.1-45.9-46.2-68.8-69.3
		c-11.1-11.1-22.2-22.3-33.2-33.4c-0.1-0.1-0.3-0.3-0.4-0.4c-9.4-9.5-18.8-18.9-28.2-28.3c-9.5,9.5-19,19-28.5,28.5
		c-0.1,0.1-0.2,0.2-0.3,0.3c-2.5,2.5-4.9,4.9-7.4,7.4c0,0-0.1,0.1-0.1,0.2c-9.4,9.4-18.7,18.7-28.1,28.1V336.6l-7-7
		c-9.2-9.2-12.7-20.5-8.2-27.3c2.7-3.9,4.5-4.7,9.2-3.7l6,1.2v-78.6c0-74.7,0.2-78.8,4.1-85.2c12.7-20.7,69-38.6,150.9-48
		c29.8-3.5,140.6-3.5,170.4,0c81.9,9.4,138.2,27.3,150.9,48c3.9,6.4,4.1,10.5,4.1,85v78.4l6.4-0.4
		C772.6,298.4,772.6,315.1,758.8,329.4z"/>
</g>
<g id="layer104">
	<path class="st0" d="M455.8,193.7c-94.4-7.4-150.7-20.5-165.1-38.8c-5.7-7.2-5.5-9.6,1.8-18.1c8.2-9.2,28.9-17.9,59.5-24.6
		c124-27.5,341-14,379.4,23.6c7.8,7.8,8.2,11.9,1.4,19.9c-14.4,17.2-74.3,31.6-156,37.4C550.6,195,475.7,195.4,455.8,193.7z"/>
</g>
<g id="layer105">
	<path class="st2" d="M481,609.3c-37.8-12.9-62.8-45.2-66.5-85.2c-3.3-35.7,17.4-74.5,49.5-92.8c28.1-16.2,66.9-16.2,96.1-0.4
		c23,12.3,43.1,39.8,48.4,65.7c10.3,49.5-18.7,98.3-67.1,113.3C522.9,615.6,499.1,615.4,481,609.3z M535.6,567.4
		c16-11.1,20.5-31,11.1-49.3c-2.7-5.3-11.1-19.7-18.5-31.8c-7.4-12.1-14.2-23.2-14.8-24.6c-1-2.1-1.4-2.1-2.5,0
		c-0.6,1.4-9.2,15.8-18.9,31.8c-15.6,25.7-17.7,30.6-18.5,40.6c-1.4,18.5,7.4,31.8,25.3,38.6C509.2,576.4,526.2,573.9,535.6,567.4z"
		/>
</g>
<ellipse class="st3" cx="378.4" cy="149.4" rx="47.2" ry="14.3"/>
<ellipse class="st3" cx="638.6" cy="142.6" rx="27.1" ry="8.2"/>
</svg>
