<?xml version="1.0" encoding="utf-8"?>
<!-- Generator: Adobe Illustrator 24.0.1, SVG Export Plug-In . SVG Version: 6.00 Build 0)  -->
<svg version="1.1" id="DFIX" xmlns="http://www.w3.org/2000/svg" xmlns:xlink="http://www.w3.org/1999/xlink" x="0px" y="0px"
	 width="1024px" height="1024px" viewBox="0 0 1024 1024" style="enable-background:new 0 0 1024 1024;" xml:space="preserve">
<style type="text/css">
	.st0{fill:#434949;}
	.st1{fill:#009685;}
	.st2{fill:#52CCBA;}
</style>
<g>
	<path class="st0" d="M1012,326.9c-11.1,76.5-22.2,152.9-33.3,229.4c-21.1-21.1-42.3-42.3-63.4-63.4L752.4,655.7l-9,9L537.8,870.3
		l-0.4-0.4l-0.1,0.1l-61.1-61.1l-73.2-73.2l0,0l-10.5-10.5l-27.7-27.7l-28.9-28.9l-29,29L81.2,923L12,853.8l249.9-249.9l14.2-14.2
		c7.2-7.2,14.4-14.4,21.6-21.6c4.3-4.3,8.5-8.5,12.8-12.8c8.7-8.7,17.3-17.3,26-26c9.9,10,19.9,20,29.8,30
		c24.4,24.6,48.8,49.1,73.2,73.7c29.1,29.3,58.3,58.6,87.4,88c3.6,3.6,7.2,7.3,10.8,10.9l7.2-7.2l6.9-6.9l23.3-23.3l45.2-45.2
		l14.8-14.8l3.3-3.3l43.1-43.1l0.4-0.4l28.7-28.7l19.3-19.3L846,423.6c-21.1-21.2-42.3-42.3-63.4-63.4
		C859.1,349.1,935.5,338,1012,326.9z"/>
</g>
<g id="layer101">
	<path class="st0" d="M899.6,136.7c-3.9,18.2-22.2,31.1-38.3,26.7c-7.4-1.9-3.4-4.8-40.6,28.5c-15.9,14.3-43,38.5-59.9,53.6
		c-17.1,15.3-31.1,28.8-31.1,30.3c0,1,2.2,4.9,5.2,9.4c0.2,0.3,0.4,0.5,0.5,0.8c0.7,1,1.4,2,2.1,3c1,1.3,1.9,2.6,2.8,3.9
		c0.1,0.1,0.1,0.2,0.2,0.2c0.5,0.7,1,1.3,1.4,2c0,0,0,0,0,0c8.8,12.5,15.5,23.9,22,37.5c0,0,0,0,0,0c0.1,0.2,0.2,0.3,0.2,0.5
		c0.7,1.4,1.4,2.9,2.1,4.4c3.3,7.1,6.3,14,9,20.9c0.4,1,0.8,2,1.1,3c0.1,0.2,0.2,0.4,0.2,0.6c0.3,0.8,0.5,1.5,0.8,2.3
		c0.1,0.3,0.2,0.6,0.3,0.9c0.3,0.7,0.5,1.4,0.7,2.1c0.4,1,0.7,2,1,3c0.3,0.8,0.5,1.7,0.8,2.5c0.1,0.3,0.2,0.7,0.3,1
		c0.3,1,0.6,2,0.9,3c0.3,1,0.6,2,0.9,3c3.1,10.9,5.6,22,7.4,33.7c0,0.1,0,0.2,0,0.2c1.1,7,2,14.3,2.7,21.9c0.1,0.8,0.1,1.6,0.2,2.4
		c0.1,0.8,0.1,1.6,0.2,2.4c0.4,5.1,0.6,10.3,0.6,15.4L729.7,520l-19.3,19.3l-28.7,28.7l-0.4,0.4l-43.1,43.1l-3.3,3.3l-14.8,14.8
		L575,674.7l-23.3,23.3l-6.9,6.9l-7.2,7.2c-3.6-3.6-7.2-7.3-10.8-10.9c-29.1-29.3-58.3-58.6-87.4-88c-24.4-24.6-48.8-49.2-73.2-73.7
		c-9.9-10-19.9-20-29.8-30c-8.7,8.7-17.3,17.3-26,26c-4.3,4.3-8.5,8.5-12.8,12.8c-7.2,7.2-14.4,14.4-21.6,21.6l-14,14
		c-2.2-4.5-4.4-9-6.4-13.5c-0.1-0.3-0.3-0.5-0.4-0.8c0-0.1-0.1-0.2-0.1-0.2c-0.3-0.8-0.7-1.5-1-2.2c-3.6-8-6.6-15.5-8.4-21.3
		c-2.1-6.6-4-12.8-5.6-18.7c-0.4-1.5-0.8-3-1.2-4.4c-0.3-1-0.5-2-0.7-2.9c-3.9-16-5.9-30.6-6.6-47.1v0c-0.2-5.3-0.3-10.8-0.3-16.6
		c0.1-14,0.9-26.6,2.5-38.6l0.2-1.3c1.3-9.4,3.1-18.6,5.6-27.8c0-0.1,0.1-0.3,0.1-0.5c0.1-0.6,0.3-1.2,0.5-1.8
		c0.2-0.6,0.4-1.3,0.6-2c1.5-5.4,3.3-11,5.2-16.7c0.1-0.3,0.2-0.6,0.3-0.9c1.1-3.1,2.2-6.2,3.4-9.4c0.8-2.2,1.5-4.3,2.3-6.3
		c0,0,0,0,0,0c2.3-6.7,4-12.1,4-13.3c0,0,0-0.1,0-0.1c0.3-1.8,6.3-12.1,13.7-23.1c0,0,0,0,0-0.1c3.3-4.8,6.3-9.5,8.7-13.4
		c0,0,0-0.1,0.1-0.1c3-4.9,4.9-8.4,4.9-9c0-1.3-12.9-13.7-28.5-27.7c-39.5-35.3-48.6-43.3-56.1-50.3c-3.5-3.4-16.8-15.3-29.5-26.6
		l-22.9-20.6l-9.7,1.1c-8.5,1-10.8,0.7-18.2-3.1c-21.7-10.8-25.1-36.1-6.9-52.2c8.2-7.2,17.1-9.5,26.4-6.9
		c15.8,4.2,25.3,16.4,25,32.7l-0.2,9.2l9.8,8.5c5.5,4.7,36.3,31.9,68.5,60.6c32.2,28.5,59.4,51.9,60.6,51.9c0.8,0,4.1-2.6,7.6-5.9
		c0,0,0.1-0.1,0.1-0.1c0.1-0.1,0.3-0.3,0.4-0.4c0.3-0.3,0.6-0.6,1-1c0.6-0.6,1.1-1.2,1.7-1.7c0.2-0.2,0.3-0.4,0.5-0.5
		c0.4-0.4,0.8-0.8,1.2-1.2c1.2-1.1,2.3-2.3,3.5-3.4c0.8-0.8,1.6-1.5,2.4-2.3c0.8-0.7,1.5-1.4,2.3-2.1c0.3-0.3,0.7-0.6,1-0.9
		c0,0,0,0,0,0c0,0,0.1-0.1,0.1-0.1c0.4-0.4,0.8-0.7,1.2-1.1c0.7-0.6,1.5-1.3,2.2-1.9c0.7-0.6,1.5-1.3,2.2-1.9c0.3-0.3,0.7-0.6,1-0.8
		c0.7-0.6,1.4-1.2,2.1-1.7c0.4-0.3,0.8-0.7,1.2-1c0.4-0.3,0.8-0.7,1.2-1c0.4-0.3,0.8-0.7,1.3-1c0.4-0.3,0.9-0.7,1.3-1
		c0.5-0.4,1-0.8,1.5-1.2c0.5-0.4,1-0.8,1.5-1.1c0.5-0.4,1-0.8,1.5-1.1c0.1-0.1,0.2-0.2,0.3-0.3c0.1,0,0.1-0.1,0.2-0.1
		c16.5-12.3,34.5-23,53.7-31.8c1-0.5,2-0.9,3-1.3c12.8-5.7,26.1-10.5,39.7-14.4c0.1,0,0.2,0,0.3-0.1c3.2-0.9,6.5-1.8,9.7-2.6
		c6-1.5,12.2-2.7,18.5-3.7c0.3,0,0.6-0.1,0.9-0.2c5.6-0.9,11.4-1.6,17.2-2.1c0.9-0.1,1.8-0.2,2.8-0.3c7.1-0.6,14.3-0.9,21.5-1
		c0.6,0,1.1,0,1.6,0c0.7,0,1.4,0,2.1,0h0.1c16.1,0,32.1,1.4,47.2,4c0.8,0.1,1.6,0.3,2.3,0.4c0.1,0,0.3,0,0.4,0.1
		c0.8,0.2,1.7,0.3,2.5,0.5c0.2,0,0.5,0.1,0.7,0.1c0.2,0,0.4,0.1,0.6,0.1c0.9,0.2,1.7,0.3,2.6,0.5c1.1,0.2,2.1,0.5,3.2,0.7
		c19.7,4.4,39.2,11.1,57.2,19.3c0.4,0.2,0.7,0.3,1.1,0.5c0.1,0,0.1,0.1,0.2,0.1c11.6,5.4,22.5,11.5,32.4,18
		c4.3,2.8,9.5,6.5,14.8,10.4c0.2,0.2,0.4,0.3,0.7,0.5c0.7,0.5,1.4,1,2.1,1.5c0.4,0.3,0.7,0.5,1.1,0.8c0.3,0.2,0.6,0.4,0.9,0.7
		c0.2,0.1,0.4,0.3,0.6,0.4c0.6,0.4,1.2,0.9,1.8,1.3c1.8,1.3,3.5,2.7,5.1,3.9c1.8,1.4,3.5,2.8,5.3,4.2c0.4,0.3,0.8,0.7,1.3,1
		c0.2,0.1,0.3,0.3,0.5,0.4c1.9,1.5,3.4,2.9,4.6,4c0,0,0,0,0,0c0.2,0.2,0.4,0.4,0.6,0.5c0.2,0.2,0.3,0.3,0.5,0.5
		c0.1,0.1,0.2,0.2,0.2,0.2c0.1,0.2,0.3,0.3,0.4,0.4c0.2,0.3,0.5,0.5,0.8,0.8c0.5,0.4,1.1,0.8,1.7,1.1c0.9,0.5,1.9,0.7,2.7,0.7
		c2.4,0,49.1-39.8,68.3-58.1c2.7-2.6,16.9-15.3,31.9-28.2l26.9-23.7v-9.2c0-18,12.4-32.1,29.5-33.5c6.6-0.5,10.2,0.2,15.1,2.6
		C893.5,110.3,902,125.1,899.6,136.7z"/>
</g>
<g id="layer102">
	<path class="st1" d="M793.5,456.1L729.7,520l-19.3,19.3l-28.7,28.7l-0.4,0.4c-2.3-2-4.1-3.7-5.4-4.8c0,0,0,0,0,0
		c-1.5-1.3-2.4-2-2.5-2c-0.2,0-0.8,0.6-1.7,1.5c-3.3,3.6-9.8,12.3-9.8,13.3c0,0.2,2.2,2.2,5.9,5.5l-29.6,29.6l-3.3,3.3l-14.8,14.8
		L575,674.7l-23.3,23.3l-6.9,6.9l-7.2,7.2c-3.6-3.6-7.2-7.3-10.8-10.9c-29.1-29.3-58.3-58.6-87.4-88c-24.4-24.6-48.8-49.2-73.2-73.7
		c-9.9-10-19.9-20-29.8-30c-8.7,8.7-17.3,17.3-26,26c-4.3,4.3-8.5,8.5-12.8,12.8c-7.2,7.2-14.4,14.4-21.6,21.6l-14,14
		c-2.2-4.5-4.4-9-6.4-13.5c-0.1-0.2-0.2-0.3-0.3-0.5c0-0.1-0.1-0.2-0.1-0.3c0-0.1-0.1-0.2-0.1-0.2c-0.3-0.8-0.7-1.5-1-2.2
		c-3.6-8-6.6-15.5-8.4-21.3c-2.1-6.6-4-12.8-5.6-18.7c-0.4-1.5-0.8-3-1.2-4.4c-0.3-1-0.5-2-0.7-2.9c-3.9-16-5.9-30.6-6.6-47.1v0
		c-0.2-5.3-0.3-10.8-0.3-16.6c0.1-14,0.9-26.6,2.5-38.6l0.2-1.3c1.3-9.4,3.1-18.6,5.6-27.8c0-0.1,0.1-0.3,0.1-0.5
		c0.1-0.6,0.3-1.2,0.5-1.8c0.2-0.6,0.4-1.3,0.6-2c1.5-5.4,3.3-11,5.2-16.7c0.1-0.3,0.2-0.6,0.3-0.9c1.1-3.1,2.2-6.2,3.4-9.4
		c0.8-2.2,1.5-4.3,2.3-6.3c0,0,0,0,0,0c2.3-6.7,4-12.1,4-13.3c0,0,0-0.1,0-0.1c0.4-1.6,6.9-12.4,13.7-23.1c0,0,0,0,0-0.1
		c3-4.8,6.1-9.5,8.7-13.4c0,0,0-0.1,0.1-0.1c1.9-2.9,3.6-5.2,4.7-6.6c0.4-0.5,0.7-0.9,0.9-1.1c0,0,0,0,0,0h0
		c0.5,0.2,3.3,2.6,7.4,6.1l0.2,0.2c2.2,1.9,4.7,4.1,7.4,6.5c0.6,0.5,1.2,1,1.8,1.6l16.4,14.5l0.2,0.2l3.5-3.9
		c1.9-2.1,6.6-7.1,10.3-11.1l2.6-2.9l3.9-4.3l0.2-0.3l-5.5-4.8l-12.1-10.4L303,269.1l4.9-5.1c0.2-0.2,0.4-0.5,0.7-0.7l1.4-1.4
		l0.6-0.7c0.7-0.7,1.3-1.4,2-2c0,0,0,0,0,0c0.2-0.2,0.3-0.4,0.5-0.5c0.4-0.4,0.8-0.8,1.2-1.2c1.2-1.1,2.3-2.3,3.5-3.4
		c0.8-0.8,1.6-1.5,2.4-2.3c0.8-0.7,1.5-1.4,2.3-2.1c0.3-0.3,0.7-0.6,1-0.9c0,0,0,0,0,0c0,0,0.1-0.1,0.1-0.1c0.4-0.4,0.8-0.7,1.2-1.1
		c0.7-0.6,1.5-1.3,2.2-1.9c0.7-0.6,1.5-1.3,2.2-1.9c0.3-0.3,0.7-0.6,1-0.8c0.7-0.6,1.4-1.2,2.1-1.7c1.2-1,2.4-2,3.7-3
		c1.4-1.2,2.9-2.3,4.3-3.4c0.5-0.4,1-0.8,1.5-1.1c0.1-0.1,0.2-0.2,0.3-0.3c1.3-1,2.7-2,4.1-3c1.4-1,2.8-2,4.3-3
		c0.9-0.6,1.8-1.3,2.8-1.9c1.5-1,3-2,4.5-3c12.1-7.9,25-14.9,38.3-21c1-0.5,2-0.9,3-1.3c19.4-8.5,39.9-15.1,61-19.4
		c2.4-0.5,4.8-0.9,7.2-1.4c0.3,0,0.6-0.1,0.9-0.2c2.7-0.5,5.4-0.9,8.1-1.3c8.9-1.4,19.8-2,31.3-2.1c0.7,0,1.3,0,2,0
		c15.1,0,31.2,1.1,45.4,3.1c0.9,0.1,1.9,0.3,2.8,0.4c1.8,0.3,3.5,0.6,5.1,0.9c0.1,0,0.3,0,0.4,0.1c0.8,0.2,1.7,0.3,2.5,0.5
		c0.2,0,0.5,0.1,0.7,0.1c0.2,0,0.4,0.1,0.6,0.1c0.9,0.2,1.7,0.3,2.6,0.5c1.1,0.2,2.1,0.5,3.2,0.7c20.5,4.6,39.1,10.8,57.2,19.3
		c1,0.5,2,0.9,3,1.4c1.6,0.8,3.3,1.6,4.9,2.4c0.7,0.4,1.4,0.7,2.2,1.1c1.7,0.9,3.5,1.9,5.2,2.8c0.9,0.5,1.7,1,2.6,1.4
		c1.7,1,3.5,2,5.2,3c0.8,0.5,1.7,1,2.5,1.5c0,0,0.1,0,0.1,0.1c1.7,1,3.4,2.1,5.1,3.2c5.9,3.8,11.8,7.8,17.7,12
		c0.2,0.2,0.4,0.3,0.7,0.5c0.7,0.5,1.4,1,2.1,1.5c0.4,0.3,0.7,0.5,1.1,0.8c0.3,0.2,0.6,0.4,0.9,0.7c0.2,0.1,0.4,0.3,0.6,0.4
		c0.6,0.4,1.2,0.9,1.8,1.3c1.7,1.3,3.4,2.6,5.1,3.9c1.8,1.4,3.5,2.8,5.3,4.2c0.4,0.3,0.8,0.7,1.3,1c0.2,0.1,0.3,0.3,0.5,0.4
		c2.6,2.1,5.2,4.3,7.9,6.5c0.4,0.4,0.7,0.7,0.9,1.1c0.3,0.5,0.2,1.1-0.2,1.9v0c-0.3,0.6-0.8,1.3-1.6,2.1c0,0,0,0,0,0
		c-1.9,2.1-5.3,5.2-11,10.2c-2,1.8-4.1,3.7-6.3,5.6c0,0,0,0,0,0c-4.4,4-9,8.1-12.6,11.3c-1.6,1.5-3.1,2.8-4.2,3.8l-8.4,7.7l9.8,10.5
		c1.7,1.7,3.3,3.3,4.7,4.8c0.4,0.3,0.7,0.7,1.1,1l2.6,2.4c1.4,1.3,2.4,2.1,2.6,2.1c0.6,0,11.1-9,23.5-20l9-8.1l2.8-2.5l10.4-9.4
		l0.1,0.2l6.8,9.3l0.2,0.2c1.6,2.2,3.2,4.4,4.8,6.6c0.1,0.1,0.1,0.2,0.2,0.2c9,12.9,17,26.3,23.8,40.1c0.2,0.3,0.3,0.7,0.5,1
		c0,0,0,0,0,0c0.9,1.8,1.7,3.5,2.5,5.3c0.8,1.8,1.6,3.6,2.4,5.4c0.5,1.2,1,2.4,1.5,3.6c1.4,3.3,2.8,6.7,4,10c0.4,1,0.8,2,1.1,3
		c0.1,0.2,0.2,0.4,0.2,0.6c0.3,0.8,0.5,1.5,0.8,2.3c0.1,0.3,0.2,0.6,0.3,0.9c0.3,0.7,0.5,1.4,0.7,2.1c0.4,1,0.7,2,1,3
		c0.3,0.8,0.5,1.7,0.8,2.5c0.1,0.3,0.2,0.7,0.3,1c0.3,1,0.6,2,0.9,3c0.1,0.3,0.2,0.6,0.3,0.9c0.2,0.7,0.4,1.4,0.6,2.1
		c0.3,0.9,0.5,1.8,0.8,2.7c0.3,0.9,0.5,1.8,0.7,2.7c1.3,5,2.6,10,3.6,15c0.7,3.3,1.5,8.1,2.3,13.4c0,0.1,0,0.2,0,0.2
		c1,7,2,15,2.7,21.9c0.1,0.8,0.1,1.6,0.2,2.4c0.1,0.8,0.1,1.6,0.2,2.4C793.3,445.7,793.5,450.9,793.5,456.1z"/>
</g>
<g id="layer103">
	<path class="st2" d="M366.3,539.4c-9.9-10-19.9-20-29.8-30c-8.7,8.7-17.3,17.3-26,26c-18.3-33.7-30.1-69.6-36.8-111.6
		c-2.7-16.4-2.7-78.4-0.2-92.1c1.1-5.6,2.7-14.7,3.7-20.1c0.8-5.5,2.7-11.9,4.2-14.3l1.8-3.1l0.8-1.3l0.2,0.2h0l7.4,6.1l0.2,0.2
		l7.4,6.3l0,0.2l-0.8,18.8c-2.1,50.9,11.6,112.9,35.9,162.2C343.3,505.3,354.1,522.9,366.3,539.4z"/>
	<path class="st2" d="M575,674.7l-23.3,23.3l-6.9,6.9c-6-1.1-12-2.3-18-3.7c-29.1-29.3-58.3-58.6-87.4-88
		c34.8,26,74.3,45.5,116.4,56.9C562.5,671.8,568.8,673.4,575,674.7z"/>
	<path class="st2" d="M710.4,539.2l-28.7,28.7c-0.7-0.5-1.5-1.1-2.3-1.8c-1.5-1.2-2.6-2-3.5-2.7c0,0,0,0,0,0c-2.1-1.5-3-1.5-4.1-0.5
		c-0.4,0.4-0.9,0.9-1.4,1.5c-2.7,3.2-2.7,3.2-16.4-0.5c-61.5-16.3-119.8-51.9-162-98.9c-57.8-64.3-88.1-146.7-85.7-232.3
		c0.8-27.1,1.8-25.3-11-20c-4.7,1.9-5.5,3.2-6.4,9.8c-1.5,10.3,0.5,54.4,3.2,71.5c15.6,94.6,62.8,172.8,138.4,229.1
		c20.6,15.3,36.6,25,60.7,36.4c17.9,8.4,55.6,21.4,71.4,24.3c0.9,0.2,1.8,0.4,2.6,0.5l-26.8,26.8l-3.3,3.3
		c-45-7.9-88.4-25.3-126.5-51.1c-83.9-56.9-136.4-145-146.3-245c-2.1-20.6-1.1-62,1.9-79.7c1-6.1,1.5-11.3,1.1-11.6s-4.7,1.9-9.7,5
		l-9,5.6l-1.5,12.4c-1.9,18-1.5,64.9,1,81.7c10.3,75.7,42.2,142.1,94.4,197c48.5,51,111.8,86,179.6,100.6l-30.4,30.4
		c-7.9-1.5-16.2-3.4-25.4-5.8c-78.6-20.5-145.8-68.3-191.8-136.6c-34.8-51.5-53.8-109-56.4-170.3l-1-23.4l2-2.1l9.4-9.9l7.3-7.7
		l4-4.2l-0.1-0.1l-5.3-5l-4.2-3.9l-9.5-8.9l2.9-14c1.6-8.2,2.3-13.5,1.1-13c-0.8,0.6-5.3,4.2-9.8,8c-10.2,8.6-12.4,8.7-5.2,1
		c0.2-0.2,0.4-0.5,0.7-0.7c0.3-0.3,0.5-0.6,0.9-0.9c0,0,0.1-0.1,0.1-0.1c0.2-0.2,0.4-0.4,0.5-0.6c0.2-0.2,0.3-0.3,0.5-0.5
		c0.7-0.7,1.3-1.4,2-2c0,0,0,0,0,0c0.2-0.2,0.3-0.4,0.5-0.5c6.5-6.5,13.3-12.7,20.4-18.5c0.4-0.3,0.8-0.7,1.2-1
		c0.4-0.3,0.8-0.7,1.3-1c0.4-0.3,0.9-0.7,1.3-1c0.5-0.4,1-0.8,1.5-1.2c0.5-0.4,1-0.8,1.5-1.1c0.5-0.4,1-0.8,1.5-1.1
		c0.1-0.1,0.2-0.2,0.3-0.3c0.1,0,0.1-0.1,0.2-0.1c1.3-1,2.6-1.9,3.9-2.9c1.4-1,2.8-2,4.3-3c0.9-0.6,1.8-1.3,2.8-1.9c1.5-1,3-2,4.5-3
		c25-16.4,52.4-28.8,80.9-36.7c0.1,0,0.2,0,0.3-0.1c6.9-1.9,14-3.6,21-4.9c8.3-1.6,16.8-2.8,25.2-3.7c0.9-0.1,1.8-0.2,2.8-0.3
		c6.5-0.6,13-0.9,19.5-1c0.7,0,1.3,0,2,0c0.6,0,1.1,0,1.6,0c0.7,0,1.4,0,2.1,0h0.1c14.3,0.1,28.2,1.2,41.6,3.1
		c0.9,0.1,1.9,0.3,2.8,0.4c0.9,0.1,1.9,0.3,2.8,0.4c24.7,4.1,48,11.5,70.6,22.3c0.1,0,0.1,0.1,0.2,0.1c0.6,0.3,1.1,0.5,1.7,0.8
		c1.6,0.8,3.3,1.6,4.9,2.4c0.7,0.4,1.4,0.7,2.2,1.1c1.7,0.9,3.5,1.9,5.2,2.8c0.9,0.5,1.7,1,2.6,1.4c1.7,1,3.5,2,5.2,3
		c0.8,0.5,1.7,1,2.5,1.5c0,0,0.1,0,0.1,0.1c1.7,1,3.4,2.1,5.1,3.2c5.9,3.8,11.8,7.8,17.7,12c0.2,0.2,0.4,0.3,0.7,0.5
		c0.7,0.5,1.4,1,2.1,1.5c0.4,0.3,0.7,0.5,1.1,0.8c0.3,0.2,0.6,0.4,0.9,0.7c0.2,0.1,0.4,0.3,0.6,0.4c1.7,1.3,3.4,2.6,5.1,3.9
		c6.4,5,10.7,8.5,13.5,11c0,0,0,0,0,0c0.2,0.2,0.4,0.4,0.6,0.5c0.2,0.2,0.3,0.3,0.5,0.5c0.1,0.1,0.2,0.2,0.2,0.2
		c0.4,0.4,0.8,0.9,1.1,1.2c1.1,1.3,1.5,2.2,1.5,2.9v0c0,0.7-0.4,1.2-1,1.7c-0.2,0.2-0.4,0.3-0.5,0.4c0,0,0,0,0,0
		c-1.5,0.8-3.5-0.2-7.8-3.6l-6.1-5.2l1.1,7.7c0.6,4.4,1.5,8.7,1.8,9.7c0.2,0.5-2.6,3.6-6.3,7.2c0,0,0,0,0,0
		c-4.2,4.2-9.6,9-12.6,11.3c-1.3,1-2.1,1.5-2.2,1.3c-0.2-0.2-0.6-10.2-1.3-22.1c-1.3-29.2-1.8-30.3-12.4-36.4c-4.8-2.9-8.9-5-9-4.8
		c-0.3,0.2,0.5,7.6,1.8,16.4c2.7,20,3.2,61.2,1,81.3c-5.6,48.5-21.4,94.1-47.2,136.4c-4.5,7.4-8.7,13.7-9.3,14.2
		c-1.3,0.6-27.9-19.5-32.5-24.8c-2.9-3.1-2.7-3.5,7.1-18.2c19.2-29.3,35-64.6,44.3-99.5c8.4-31.4,10.8-50.1,10.9-85.5l0.2-31.4
		l-5.6-2.6c-13-6.1-12.1-8.1-11.6,23.2c0.6,29.3-1,48.3-6.3,74.3c-7.4,36.1-25,78.8-45.1,109.9L547,431.5l-8.5-9.5
		c-4.8-5.2-11.6-13.4-15.1-17.9l-6.6-8.5l9.7-14.8c31.9-49.3,50.7-107.1,54.4-166.6l1.1-18l-4.7-1c-28.7-6-64.8-8.2-94.4-5.8
		c-21.6,1.6-45.9,5.3-47.8,7.4c-1.8,1.8-0.5,32.4,2.3,50.7c4.2,29,9.7,49.4,23,84.9c5.1,13.4,20.6,41.5,32.2,58.9
		c6,8.7,11.6,16.9,12.4,18.4c6.6,10,41.2,45.4,56.4,57.8c41.6,33.7,87.6,56.7,137.7,69.1C702.7,537.6,706.5,538.4,710.4,539.2z"/>
	<path class="st2" d="M761.1,370.4v-38.7l-7.7-12.9c-4.4-6.9-10-15.3-12.6-18.4l-4.8-5.6l1,6.5c0.6,3.5,2.3,11.9,3.4,18.5
		c1.3,6.6,2.7,25.9,3.4,42.7c1.1,36.2-1.5,60.2-10,93.3c-6.8,26.6-21.7,65.4-25.3,65.4c-2.4,0-30.6-8.1-36.1-10.5l-5-2.1l12.2-24.6
		c27.1-54.1,38.8-108.9,36.7-169.8l-1-25.7v-0.1l2.8-2.4l4-3.4l6.6-5.8l0,0l6.2,8.5l0.9,1.2c2.1,2.9,4.2,5.8,6.2,8.7c0,0,0,0,0,0
		c8.3,12.1,15.7,24.6,22,37.5c0,0,0,0,0,0c0.3,0.5,0.5,1,0.8,1.5c0,0,0,0,0,0c0.9,1.8,1.7,3.5,2.5,5.3c0.8,1.8,1.6,3.6,2.4,5.4
		c0.5,1.2,1,2.4,1.5,3.6c1.4,3.3,2.8,6.7,4,10c0.4,1,0.8,2,1.1,3c0.1,0.2,0.2,0.4,0.2,0.6c0.3,0.8,0.5,1.5,0.8,2.3
		c0.1,0.3,0.2,0.6,0.3,0.9c0.3,0.7,0.5,1.4,0.7,2.1c0.4,1,0.7,2,1,3c0.3,0.8,0.5,1.7,0.8,2.5c0.1,0.3,0.2,0.7,0.3,1
		c0.3,1,0.6,2,0.9,3c0.1,0.3,0.2,0.6,0.3,0.9c0.2,0.7,0.4,1.4,0.6,2.1c0.3,0.9,0.5,1.8,0.8,2.7c0.3,0.9,0.5,1.8,0.7,2.7
		c1.3,5,2.6,10,3.6,15c0.7,3.3,1.5,8.1,2.3,13.4c0,0.1,0,0.2,0,0.2c1,7,2,15,2.7,21.9c0.1,0.8,0.1,1.6,0.2,2.4
		c0.1,0.8,0.1,1.6,0.2,2.4c0.4,5.1,0.6,10.3,0.6,15.5L729.7,520c1.4-3.5,3.8-9.5,6.4-15.7c8.7-21.1,16.4-48.2,21.1-74.1
		C760.4,412.2,761.1,403.9,761.1,370.4z"/>
	<path class="st2" d="M265.8,571.1c0,0.6,1,3.3,2.5,6.5l-6.3,6.3c-2.2-4.6-4.4-9.3-6.5-14.2c0-0.1-0.1-0.2-0.1-0.3
		c0-0.1-0.1-0.2-0.1-0.2c-6.1-14.1-11.4-29-15-42.2c-0.4-1.5-0.8-3-1.2-4.4c-0.5-1.9-0.9-3.8-1.3-5.5c-3.2-14.6-5.2-29.5-6-44.5v0
		c-1-18.6-0.3-37.1,2.2-55.2l0.2-1.3c1.4-9.5,3.2-18.8,5.6-27.8c0-0.1,0.1-0.3,0.1-0.5c0-0.2,0.1-0.4,0.1-0.6
		c0.1-0.4,0.2-0.8,0.3-1.2c0.2-0.6,0.4-1.3,0.6-2c1.4-4.8,3.3-10.9,5.2-16.7c0.1-0.3,0.2-0.6,0.3-0.9c2.1-6.3,4.2-12.2,5.7-15.7
		c0,0,0,0,0,0c0.9-2.2,1.5-3.5,1.8-3.5c0.3,0,0.2,8.2-0.5,18.2c-2.3,43.5,7.7,100.4,25.3,143c2.7,6.3,4.5,11.9,4.2,12.2
		c-0.3,0.3-7.6,1.5-16.3,2.6l-15.6,1.8l1.1,5.6c2.1,11.8,1.8,11.6,11.8,10.5c5-0.5,13.2-1.6,17.9-2.4c4.8-0.8,9.3-1,10-0.3
		c0.5,0.6,3,4.7,6,9.7c-7.2,7.2-14.4,14.4-21.6,21.6C269.6,570,265.8,570.5,265.8,571.1z"/>
	<path class="st2" d="M632,493c-9.7-5-18.5-10-19.5-11c-1.6-1.6-1-3.7,3.4-10c13.5-20.3,27.7-49.8,37.7-78.3
		c7.6-21.4,15.8-60.7,16.6-79.1c0.3-4.3,0.8-7.7,1.3-7.7s3.2,2.3,6.1,5.2l5.3,5l8.2-6.9l8.2-6.9l-0.8,32.1
		c-1,40.9-3.7,57.3-15.9,95.7c-5.6,17.9-24.6,60.1-30.6,68.1C649.9,502,648.8,501.7,632,493z"/>
	<path class="st2" d="M499.2,369.5c-8.7-13.4-18.4-33.2-16.9-34.6c0.6-0.6,12.4-1.4,26.1-1.8l25.1-0.6l-5.2,10.1
		c-5.5,11-20.9,36.9-22.1,36.9C505.9,379.5,502.7,374.9,499.2,369.5z"/>
	<path class="st2" d="M473.1,317c-1.8-2.9-12.4-37.7-12.4-40.4c0-3.7,3.2-4.3,30.6-6.6c18.5-1.4,59.9-0.2,62.2,1.9
		c1.3,1.3-2.1,14.3-7.6,29.3l-5,13.9l-19.5,0.2c-10.8,0.2-21.7,0.5-24.5,0.6C477.7,317.9,473.5,318.1,473.1,317z"/>
	<path class="st2" d="M455.3,251.9c-1.6-6.3-4.8-40.1-3.9-40.9c0.5-0.5,10.1-1.9,21.4-3.4c27.5-3.2,86-1.1,90.4,3.4
		c0.8,0.8-2.1,29.5-3.9,38l-0.8,4.2l-38-0.2c-20.9,0-44.1,0.6-51.2,1.3C456.5,255.7,456.3,255.6,455.3,251.9z"/>
</g>
</svg>
