<?xml version="1.0" encoding="utf-8"?>
<!-- Generator: Adobe Illustrator 24.0.1, SVG Export Plug-In . SVG Version: 6.00 Build 0)  -->
<svg version="1.1" id="DFIX" xmlns="http://www.w3.org/2000/svg" xmlns:xlink="http://www.w3.org/1999/xlink" x="0px" y="0px"
	 width="1024px" height="1024px" viewBox="0 0 1024 1024" style="enable-background:new 0 0 1024 1024;" xml:space="preserve">
<style type="text/css">
	.st0{fill:#DBDBDB;}
	.st1{fill:#C2C2C2;}
	.st2{fill:#434949;}
</style>
<g id="layer101">
	<path class="st0" d="M508.7,484.6c-1.6-5.1-3.3-10.9-4-13c-0.6-2.1-1.7-5.5-2.3-7.8c-0.6-2.1-1.7-5.7-2.4-7.9
		c-0.6-2.1-1.7-5.6-2.3-7.7c-12.4-41.9-24.6-81.9-31.7-103.9c15.1,50.1,30.3,100.3,45.4,150.4C511.1,493,510,488.8,508.7,484.6z
		 M799.1,397.9c-9.4-31.3-14.5-48-17.6-57.4c0,0,0,0,0,0c-2.3-6.8-3.5-9.8-4.5-11.6c-0.1-0.1-0.1-0.3-0.2-0.4c0-0.1-0.1-0.2-0.2-0.3
		c-0.1-0.1-0.2-0.3-0.3-0.4c-0.2-0.2-0.3-0.5-0.5-0.7c-0.1-0.1-0.1-0.2-0.2-0.3c-1-1.3-2.1-2.6-3.2-3.6c0,0-0.1-0.1-0.1-0.1
		c-0.8-0.8-1.5-1.4-2.2-1.8l-3.2-2.1l-48.3-0.2l-48.4-0.2l-0.1-0.5l-0.4-1.8c0,0,0,0,0,0l-0.1-0.2c-0.3-1.4-5.4-18.6-11.3-38.3
		c-5.9-19.6-11.2-37.2-11.9-39.2c-9.8-33-24.4-81.1-25.4-83.5c-0.3-1-1-2.1-1.8-3.4c-1.5-2.4-3.7-5.1-5.6-7
		c-0.9-0.9-1.7-1.6-2.4-2.1c-1.9-1.3-8.2-1.4-98.8-1.4h-96.7l-3.5,2.4c-5.5,3.9-6.8,5.9-9,13.2c-1.2,3.8-2.5,8.3-3.1,10.1
		c-0.5,1.7-1.7,5.3-2.5,7.9c-0.7,2.6-1.8,6.2-2.4,7.9c-0.5,1.8-1.6,5.3-2.4,7.9c-1.5,5.2-3.2,10.9-4.8,15.8
		c-0.5,1.7-1.6,5.3-2.4,7.9c-0.8,2.6-1.8,6.2-2.4,7.9c-1,2.8-4,13.1-7.3,24.2c-0.7,2.4-1.7,5.8-2.3,7.5c-0.6,1.7-4.8,15.8-9.4,31.3
		c-4.6,15.4-8.8,29.3-9.2,30.7l-0.5,1.5l-0.3,0.8l-0.1,0.2h-46.4c-29.6,0-47.6,0.3-49.4,0.8c-4.4,1.3-9.4,5.5-11.4,9.5
		c-1,2-7.5,23-14.6,46.7c-7,23.8-13.7,45.9-14.7,49.1c-1,3.3-2.8,9.2-4,13.1c-1.2,4-2.6,8.5-3.2,10.3c-0.5,1.7-1.8,5.9-2.8,9.1
		c-1,3.3-2.1,6.8-2.5,7.9c-0.4,1.1-0.9,2.9-1.1,3.9c-0.2,1-0.9,3.3-1.5,5.2c-1,2.8-4.7,14.8-6.4,20.9l-0.2,0.9l-0.2,0.8l0,0.1h-94.6
		l-4.1,2.1c-6.4,3.2-8.5,6.6-12.4,19.7c-0.7,2.6-1.8,6.2-2.4,7.9c-0.5,1.7-1.6,5.3-2.4,7.9c-0.8,2.6-1.8,6.2-2.4,7.9
		c-0.5,1.8-1.6,5.3-2.4,7.9c-0.8,2.6-1.8,6.2-2.4,7.9c-1.7,5.5-3.3,10.8-5.8,19c-1.3,4.4-3.3,10.9-4.4,14.7
		c-1.1,3.7-6.3,21-11.6,38.4c-5.3,17.4-10.1,33.5-10.8,35.6c-0.7,2.2-1.4,4.9-1.7,6.2l-0.3,1.8l-0.1,0.3H130l139.4-139.4
		c10.2-10.2,20.5-20.5,30.7-30.7c0,0,0.1-0.1,0.1-0.2c-3.1-3.6-7.1-6.3-10.9-7.3c-0.1,0,0.1-0.1,0.7-0.1c0,0,0,0,0,0
		c2.1-0.1,8.5-0.2,17.8-0.3c9.5-9.5,19-19,28.5-28.5c9.4,9.5,18.8,18.9,28.2,28.3c29.6,0,44.3,0.1,50.5,0.3c3.5,0.1,4.3,0.4,3.4,0.6
		c-4.9,1.6-7.8,3.3-10.4,6.3c-2.5,2.7-3.2,4.2-5.4,11.6c-1.7,5.7-3.3,10.9-4.5,15c22.9,23.1,45.9,46.2,68.8,69.3
		c23.5,23.7,47.1,47.4,70.6,71.1l14-14l86.5-86.5l0.3-0.3l0.4-0.4c-5.4-17.9-9.7-32.1-11-36.3c-1.3-3.9-3.5-10.9-4.9-15.6
		c-3.7-12.1-9-18.5-17-20.5c-0.1,0,0.1-0.1,0.7-0.1c0,0,0,0,0,0c4.8-0.3,31.5-0.5,64.2-0.5l40.9,0l50-50l39.6-39.6l0.2-0.2
		C800.9,403.7,800,400.8,799.1,397.9z M511.6,496.7c-0.1-0.3-0.1-0.7-0.1-1.3c0-0.1,0-0.4-0.1-0.7v0c-0.3-1.7-1.4-5.9-2.8-10.1
		c-1.6-5.1-3.3-10.9-4-13c-0.6-2.1-1.7-5.5-2.3-7.8c-0.6-2.1-1.7-5.7-2.4-7.9c-0.6-2.1-1.7-5.6-2.3-7.7
		c-12.4-41.9-24.6-81.9-31.7-103.9c0,0,0,0,0,0c-1.7-5.2-3-9.3-4.1-12.3c-1-3-1.7-4.7-2-5c-2.8-3.4-8.7-7.3-11.2-7.3
		c-1.2,0-2.4-0.3-2.6-0.8c-0.1-0.1,0.7-0.2,2.1-0.3h0c6.5-0.4,28-0.5,63.9-0.5c31.5,0,52.1,0.1,61.2,0.4h0.1
		c3.5,0.1,5.3,0.2,5.3,0.4c0,0.5-0.9,0.8-2,0.8c-4.1,0-10.5,4.5-12.8,9c-1,2-21.3,68.3-25.7,84c-0.9,3.1-2.1,7-2.6,8.7
		c-0.6,1.7-1.9,5.9-2.8,9.1c-1,3.2-2.1,6.8-2.5,7.9c-0.4,1.1-0.9,2.9-1.1,3.9c-0.2,1-0.9,3.3-1.5,5.1c-0.6,1.8-1.7,5.4-2.5,8
		c-0.8,2.6-1.7,5.6-2.1,6.7c-0.3,1.1-0.8,2.7-1,3.6c-0.2,0.9-2.4,8.2-4.9,16.5c-2.9,9.4-4.5,14.1-5.3,14.7
		C511.8,497.2,511.7,497.1,511.6,496.7z M508.7,484.6c-1.6-5.1-3.3-10.9-4-13c-0.6-2.1-1.7-5.5-2.3-7.8c-0.6-2.1-1.7-5.7-2.4-7.9
		c-0.6-2.1-1.7-5.6-2.3-7.7c-12.4-41.9-24.6-81.9-31.7-103.9c15.1,50.1,30.3,100.3,45.4,150.4C511.1,493,510,488.8,508.7,484.6z"/>
</g>
<path class="st1" d="M801.5,406.8l-39.6,39.6l-50.4,50.4c-34.9,0-69.8,0.1-104.7,0.1c0,0,0,0,0,0c-31.6,0-63.2,0.1-94.8,0.1
	c86.8-58,173.5-115.9,260.3-173.8c0,0,0.1,0.1,0.1,0.1c0.9,0.8,2.1,2.1,3.2,3.6c0.1,0.1,0.1,0.2,0.2,0.3c0.2,0.2,0.3,0.5,0.5,0.7
	c0.1,0.1,0.2,0.3,0.3,0.4c0,0.1,0.1,0.2,0.2,0.3c0.1,0.1,0.2,0.3,0.2,0.4c0.8,1.3,1.3,2.4,1.8,3.5c0.9,1.9,1.9,4.6,2.8,8.1
	c0,0,0,0,0,0C788.2,362.6,794.9,384.7,801.5,406.8z"/>
<path class="st1" d="M670.3,318.4c-105.6,0.1-211.1,0.2-316.7,0.3c86.8-57.9,173.5-115.9,260.3-173.8c1.1,1,2.6,2.6,4,4.7
	c1.1,1.7,1.8,3.1,2.4,4.5c0.9,1.9,1.9,4.7,2.8,8.2C638.9,214.3,654.6,266.3,670.3,318.4z"/>
<path class="st1" d="M300.1,504.4c-10.2,10.2-20.5,20.5-30.7,30.7L130,674.5l-0.7,0.7c-30.8,0-61.6,0.1-92.3,0.1
	c0.5-0.4,1.1-0.7,1.6-1.1c86.2-57.6,172.4-115.2,258.7-172.7C298.1,502.2,299.1,503.2,300.1,504.4z"/>
<path class="st1" d="M512,496.7h-0.4c-32.2,0-64.3,0.1-96.5,0.1c-16.7,0-33.4,0-50.1,0c-0.1-0.1-0.3-0.3-0.4-0.4
	c-9.4-9.5-18.8-18.9-28.2-28.3c-9.5,9.5-19,19-28.5,28.5c-0.1,0.1-0.2,0.2-0.3,0.3c-5.9,0-11.7,0-17.5,0c0,0,0,0,0,0
	c-31.3,0-62.5,0.1-93.8,0.1h-0.9c0.4-0.3,0.8-0.5,1.1-0.8c86.4-57.7,172.8-115.4,259.2-173.1c1.1,1,2.6,2.6,4,4.7
	c1.1,1.6,1.7,2.9,2.3,4.2c0.1,0.1,0.1,0.2,0.1,0.3c0.9,1.9,2,4.7,2.8,8.2c0.4,1.3,0.8,2.5,1.1,3.8c0,0,0,0,0,0
	c15.1,50.1,30.3,100.3,45.4,150.4v0C511.6,495.4,511.8,496,512,496.7z"/>
<path class="st1" d="M638.6,569.8l-0.3,0.3l-86.5,86.5l-14,14c-23.5-23.7-47.1-47.4-70.6-71.1c49-32.7,98-65.4,146.9-98.1
	c1.1,1,2.6,2.6,4,4.7c1.1,1.7,1.8,3.1,2.4,4.5c0.9,1.9,2,4.7,2.8,8.2C628.3,535.8,633.4,552.8,638.6,569.8z"/>
<g>
	<path class="st2" d="M1012,286.3c-11.1,76.5-22.2,152.9-33.3,229.4c-21.1-21.2-42.3-42.3-63.4-63.4L537.8,829.8l-0.4-0.4l-0.1,0.1
		L403.8,696l-0.8-0.7l-19.3-19.3l-17.8-17.8L335.8,628l-1.6,1.6l-27.4,27.4l-38.3,38.3l-0.6,0.6L81.2,882.5L12,813.3l117.3-117.3
		l0.7-0.7l139.4-139.4c10.2-10.2,20.5-20.5,30.7-30.7c0,0,0.1-0.1,0.1-0.2c2.5-2.5,4.9-4.9,7.4-7.4c0.1-0.1,0.2-0.2,0.3-0.3
		c9.5-9.5,19-19,28.5-28.5c9.4,9.5,18.8,18.9,28.2,28.3c0.1,0.1,0.3,0.3,0.4,0.4c11.1,11.1,22.1,22.3,33.2,33.4
		c22.9,23.1,45.9,46.2,68.8,69.3c23.5,23.7,47.1,47.4,70.6,71.1l14-14l86.5-86.5l0.3-0.3l0.4-0.4l123-123l39.6-39.6l44.5-44.5
		c-21.1-21.2-42.3-42.3-63.4-63.4C859.1,308.5,935.5,297.4,1012,286.3z"/>
</g>
</svg>
