<?xml version="1.0" encoding="utf-8"?>
<!-- Generator: Adobe Illustrator 24.0.1, SVG Export Plug-In . SVG Version: 6.00 Build 0)  -->
<svg version="1.1" id="Layer_1" xmlns="http://www.w3.org/2000/svg" xmlns:xlink="http://www.w3.org/1999/xlink" x="0px" y="0px"
	 width="32px" height="32px" viewBox="0 0 32 32" style="enable-background:new 0 0 32 32;" xml:space="preserve">
<style type="text/css">
	.st0{fill:#DAA520;}
</style>
<g id="Layer_1">
	
		<image style="overflow:visible;opacity:0.15;" width="26" height="35" xlink:href="D74279FC.png"  transform="matrix(1 0 0 1 4 -2)">
	</image>
	<g>
		<g>
			<g id="Omega_9_">
				<path id="O_12_" class="st0" d="M6.6,17.3c0-6.8,3.9-10.8,9.4-10.8s9.4,4.1,9.4,10.9S21.6,28.5,16,28.5S6.6,24.2,6.6,17.3z
					 M21.5,17.3c0-4.8-2.2-7.7-5.5-7.7s-5.5,3-5.5,7.7s2.2,7.7,5.5,7.7S21.5,22.1,21.5,17.3z"/>
				<path id="mega_12_" class="st0" d="M20.2,0.5L16,3.4l-4.2-2.9h-0.9V1l3.4,4.3h3.3L21,1V0.5H20.2z"/>
			</g>
		</g>
	</g>
</g>
</svg>
