<?xml version="1.0" encoding="utf-8"?>
<!-- Generator: Adobe Illustrator 24.0.1, SVG Export Plug-In . SVG Version: 6.00 Build 0)  -->
<svg version="1.1" id="DFIX" xmlns="http://www.w3.org/2000/svg" xmlns:xlink="http://www.w3.org/1999/xlink" x="0px" y="0px"
	 width="1024px" height="1024px" viewBox="0 0 1024 1024" style="enable-background:new 0 0 1024 1024;" xml:space="preserve">
<style type="text/css">
	.st0{fill:#434949;}
	.st1{fill:#51750F;}
	.st2{fill:#6B940A;}
	.st3{fill:#8BB903;}
	.st4{fill:#DA6D1B;}
	.st5{fill:#E7A12C;}
	.st6{fill:#EED436;}
</style>
<g>
	<path class="st0" d="M1012,313.8c-11.1,76.5-22.2,152.9-33.3,229.4c-21.1-21.1-42.3-42.3-63.4-63.4L746.9,648.2l-28.4,28.4
		L617.6,777.5l-0.2,0.2l-79.7,79.7l-0.4-0.4l-0.1,0.1l-61.1-61.1L335.8,655.5l-29,29L81.2,910L12,840.8L266.8,586l2.6-2.6
		c13.1-13.1,26.3-26.3,39.4-39.4c0,0,0,0,0,0c9-9,17.9-17.9,26.9-26.9c0,0,0.1-0.1,0.1-0.1c0.2-0.2,0.4-0.3,0.5-0.5
		c67.1,67.5,134.2,135.1,201.2,202.6l14-14.1l57.6-57.6l60.8-60.8l29.3-29.3l62.5-62.5l84.1-84.1c-21.1-21.2-42.3-42.3-63.4-63.4
		C859.1,336.1,935.5,325,1012,313.8z"/>
</g>
<g id="layer101">
	<path class="st1" d="M768.6,468l-6.7,6.7l-62.5,62.5l-29.3,29.3l-60.8,60.8l-57.6,57.6l-14,14.1c-45.9-46.3-91.9-92.5-137.8-138.7
		c-17.9-18-35.8-36.1-53.8-54.1c-0.1-0.1-0.2-0.2-0.2-0.3c0.6-0.3,1-0.6,1.3-0.8c0,0,0,0,0,0c0.8-0.8-2.9-3.5-8.9-6.9
		c-0.6-0.6-1.2-1.2-1.8-1.8c-0.2,0.2-0.3,0.3-0.5,0.5c-1.9-1-3.9-2-6.1-3.1c-5.3-2.6-10.7-5-16.3-7.2c-0.7-0.3-1.5-0.6-2.2-0.9
		c-0.3-0.1-0.5-0.2-0.8-0.3c-1.9-0.8-3.8-1.5-5.7-2.2c-31.5-11.9-66.1-19.4-101.8-22.4c-1.3-0.1-2.6-0.2-3.8-0.3l-0.2,0
		c-2.8-0.2-5.5-0.5-7.8-0.8l-0.2,0c-0.7-0.1-1.4-0.2-2.1-0.3c-0.4-0.1-0.7-0.1-1.1-0.2c-2.4-0.4-4.3-0.8-5.6-1.2
		c-0.1-0.1-0.3-0.1-0.4-0.1c-0.8-0.3-1.2-0.6-1.3-0.8v0c0-1.3,3.8-5.2,9.3-10c0.1-0.1,0.1-0.1,0.2-0.2c0.3-0.3,0.6-0.5,0.9-0.8
		c0.3-0.3,0.6-0.5,0.9-0.8c9.4-8,22.6-17.9,32.2-23.5c0.3-0.2,0.5-0.3,0.8-0.5c0.1-0.1,0.3-0.2,0.4-0.3c5-2.9,11.9-6.2,18.8-9.2
		c0,0,0,0,0,0c4.9-2.1,9.8-4,13.9-5.3c13.8-4.5,17.6-6.4,18.5-10.1v-0.1c0-0.1,0-0.1,0-0.2v0l0,0c0,0,0,0,0,0c0,0,0,0,0,0v0
		c0-0.1,0-0.2,0-0.3c0-0.2,0-0.3,0.1-0.5v0c0-0.3,0-0.7,0-1c0-0.2,0-0.3,0-0.5c0,0,0,0,0,0c-0.1-2.4-0.9-4.3-2.1-5.2
		c-0.1-0.1-0.1-0.1-0.2-0.2c0,0,0,0,0,0c0,0,0,0-0.1,0c-0.1-0.1-0.2-0.1-0.3-0.2c-0.1,0-0.1,0-0.2-0.1c-0.1,0-0.1,0-0.2-0.1
		c0,0-0.1,0-0.1,0c-0.1,0-0.3-0.1-0.4-0.1c-0.2,0-0.3,0-0.5,0h-0.1c-0.3,0-0.7,0-1,0c-0.2,0-0.3,0-0.5-0.1c-0.3,0-0.5,0-0.8-0.1
		c-0.3,0-0.6-0.1-0.9-0.1c-0.1,0-0.1,0-0.2,0c-0.3-0.1-0.7-0.1-1-0.2c-0.3-0.1-0.7-0.2-1-0.3c-0.3-0.1-0.6-0.2-0.9-0.3
		c-0.1,0-0.1,0-0.2-0.1c-0.1,0-0.1,0-0.2-0.1c-0.1,0-0.3-0.1-0.4-0.2c-0.1,0-0.2-0.1-0.4-0.2c0,0,0,0-0.1,0c0,0,0,0,0,0
		c-0.3-0.2-0.7-0.3-1-0.5c0,0,0,0,0,0c-0.2-0.1-0.5-0.2-0.7-0.4c0,0,0,0-0.1,0c-1.8-1-3.4-2.2-4.9-3.6c-3.8-3.5-6.5-8.3-7.5-13.4
		c0-0.1,0-0.1,0-0.2c-0.5-2.8-0.5-5.6,0.2-8.4c1-3.6,1.1-5.3-0.6-6.1c0,0-0.1-0.1-0.2-0.1c-0.1,0-0.1,0-0.2-0.1
		c-0.1,0-0.2-0.1-0.2-0.1c-0.2,0-0.4-0.1-0.6-0.1c-0.1,0-0.2-0.1-0.4-0.1c0,0,0,0,0,0c-0.2,0-0.5-0.1-0.7-0.1
		c-0.3,0-0.7-0.1-1.1-0.1c-0.6,0-1.3,0-2.1,0c-0.2,0-0.4,0-0.5,0c0,0-0.1,0-0.2,0c-0.1,0-0.2,0-0.3,0c-0.1,0-0.2,0-0.2,0
		s-0.2,0-0.3,0c-0.1,0-0.2,0-0.3,0c0,0,0,0-0.1,0c-0.2,0-0.5-0.1-0.7-0.1c-0.3-0.1-0.6-0.1-0.9-0.2c0,0,0,0-0.1,0
		c-0.1,0-0.3-0.1-0.4-0.1c-0.1,0-0.2-0.1-0.3-0.1c0,0,0,0-0.1,0c-0.1,0-0.3-0.1-0.4-0.1c-0.2-0.1-0.4-0.1-0.6-0.2
		c-0.2,0-0.3-0.1-0.5-0.2c-0.1,0-0.1,0-0.2-0.1c0,0,0,0,0,0l0,0c-0.1,0-0.1,0-0.1,0c0,0-0.1,0-0.1,0c0,0,0,0,0,0
		c-0.3-0.1-0.7-0.3-1-0.5c-0.2-0.1-0.5-0.2-0.7-0.3c-0.8-0.4-1.6-0.9-2.3-1.5c0,0,0,0-0.1,0c-1.2-0.9-2.3-1.8-3.3-2.9
		c-0.1-0.1-0.2-0.2-0.3-0.3c0,0,0,0-0.1-0.1c-3-3.2-4.4-5.6-4.7-9c0,0,0,0,0,0c-0.2-2.1,0-4.6,0.5-7.9c0.2-1.3,0.3-2.4,0.4-3.4v0
		c0.5-4.3,0.2-6.1-1.4-6.8c0,0,0,0,0,0c-0.1-0.1-0.3-0.1-0.4-0.1h0c-0.1,0-0.3-0.1-0.4-0.1c0,0,0,0,0,0c-0.1,0-0.3,0-0.4-0.1
		c-0.1,0-0.2,0-0.2,0c-0.1,0-0.3,0-0.4,0c-0.1,0-0.2,0-0.4,0c-0.5,0-1,0-1.6,0c-0.2,0-0.4,0-0.6,0c-0.2,0-0.5,0-0.7-0.1h0
		c-0.2,0-0.5-0.1-0.7-0.2c-0.2,0-0.4-0.1-0.5-0.1c-0.2,0-0.4-0.1-0.5-0.1c-0.1,0-0.2,0-0.2-0.1c-0.6-0.2-1.2-0.4-1.8-0.6
		c-0.4-0.2-0.9-0.3-1.3-0.5c0,0-0.1,0-0.1-0.1c-0.1,0-0.1,0-0.1-0.1c-0.3-0.2-0.7-0.3-1-0.5c0,0-0.1,0-0.1-0.1
		c-0.2-0.1-0.4-0.2-0.6-0.3c-0.5-0.2-0.9-0.5-1.3-0.8c0,0,0,0,0,0c-0.5-0.3-1-0.6-1.5-1c0,0,0,0,0,0c-0.3-0.2-0.6-0.4-0.9-0.6
		c-3.7-3-5.4-5.6-6-10.7v0c-0.2-1.9-0.3-4-0.2-6.7c0-1.6,0.1-3,0-4.2c0,0,0,0,0,0c0-5.1-0.7-7.1-3.1-8.3c0,0,0,0-0.1,0
		c-0.2-0.1-0.4-0.2-0.7-0.3c-0.2-0.1-0.4-0.2-0.6-0.2c-0.1,0-0.3-0.1-0.4-0.1c-0.1,0-0.3-0.1-0.5-0.1c-0.3-0.1-0.6-0.1-0.9-0.2
		c0,0,0,0-0.1,0c-0.3-0.1-0.7-0.2-1.1-0.2c-0.1,0-0.2,0-0.3-0.1c-0.1,0-0.2,0-0.2-0.1c0,0,0,0-0.1,0c-0.2,0-0.4-0.1-0.7-0.2
		c0,0,0,0,0,0c-0.1,0-0.3-0.1-0.4-0.1c-0.1,0-0.1,0-0.2-0.1c-0.2-0.1-0.4-0.1-0.5-0.2c-0.1,0-0.1,0-0.2-0.1
		c-0.4-0.2-0.7-0.3-1.1-0.5c-0.2-0.1-0.5-0.2-0.7-0.3c-1-0.5-2-1.2-2.9-1.9c-4.7-3.7-7.6-9.7-8.1-16c0-0.1,0-0.1,0-0.2
		c-0.5-5.4,0.8-11,4-15.8c2.4-3.3,3.3-4.7,2.4-4.8c0,0,0,0,0,0c0,0-0.1,0-0.1,0c0,0,0,0,0,0s0,0,0,0h-0.1c-0.4,0-1,0.3-1.9,0.6
		c-0.3,0.1-0.6,0.2-0.9,0.3c-0.3,0.1-0.6,0.1-0.9,0.1h-0.1c-0.1,0-0.3,0-0.5,0h-0.2c-0.2,0-0.3,0-0.5,0c-0.1,0-0.3,0-0.4,0
		c0,0-0.1,0-0.1,0c-0.1,0-0.3,0-0.4,0c0,0,0,0-0.1,0c-0.2,0-0.5-0.1-0.7-0.1c-0.1,0-0.2,0-0.3,0c-0.1,0-0.2,0-0.3-0.1c0,0,0,0-0.1,0
		c0,0-0.1,0-0.1,0c-0.1,0-0.3-0.1-0.4-0.1c0,0-0.1,0-0.1,0c-0.1,0-0.2,0-0.3-0.1c-0.1,0-0.2-0.1-0.3-0.1c-0.3-0.1-0.5-0.2-0.8-0.3
		c-0.1,0-0.2-0.1-0.3-0.1c-0.1,0-0.1,0-0.2-0.1c-0.1,0-0.2-0.1-0.3-0.1c0,0-0.1,0-0.1,0c-0.1,0-0.1-0.1-0.2-0.1
		c-0.2-0.1-0.4-0.2-0.6-0.3c-0.2-0.1-0.4-0.2-0.5-0.3c-5.6-2.7-11.2-7.7-12.3-12.1c0-0.2-0.1-0.3-0.1-0.5c0,0,0,0,0,0
		c-0.6-3.1-0.7-7.7-0.2-11.4c0,0,0,0,0-0.1c0.1-0.8,0.2-1.5,0.3-2.2c1.6-6.8,2-9.1,1.1-14.9c0,0,0,0,0,0c-0.3-1.8-0.6-3.8-1.1-6.4
		c-0.4-1.9-0.6-3.6-0.5-5.2v0c0-4.1,1.5-7.3,4.6-11.4c0.8-1.2,1.6-2.3,2.1-3.4c0,0,0,0,0-0.1c1.6-2.9,2-5.1,0.8-5.9
		c-1.6-0.8-2.7-6.2-2.7-11.5c0-4,1.5-8.3,3.8-12.5c1.1-1.9,2.4-3.9,3.9-5.7c2.4-3.1,5.3-5.9,8.3-8.2c0,0,0.1,0,0.1-0.1
		c1.1-0.9,2.3-1.7,3.4-2.4c0.2-0.1,0.5-0.3,0.7-0.4c0.5-0.3,1-0.6,1.5-0.8c0.4-0.2,0.8-0.4,1.2-0.6c0.3-0.1,0.6-0.3,0.8-0.4
		c0.2-0.1,0.4-0.2,0.6-0.2c0.3-0.1,0.6-0.2,0.9-0.3c0.2-0.1,0.4-0.1,0.5-0.2c0.3-0.1,0.5-0.2,0.8-0.2c0.3-0.1,0.5-0.1,0.8-0.2
		s0.5-0.1,0.8-0.2c0.3,0,0.5-0.1,0.8-0.1c0.3,0,0.6-0.1,0.8-0.1c0.2,0,0.4,0,0.6,0c0.2,0,0.3,0,0.5,0c0.6,0,1.2,0,1.8,0.1h0.1
		c0.3,0,0.6,0,0.9,0.1c0.3,0,0.5,0.1,0.8,0.1c0.2,0,0.5,0,0.7,0.1c0,0,0.1,0,0.1,0c0,0,0,0,0,0c0.2,0,0.4,0.1,0.6,0.1
		c0.2,0,0.4,0.1,0.6,0.1c0.6,0.1,1.2,0.3,1.7,0.4c0.1,0,0.2,0,0.3,0.1c0.4,0.1,0.7,0.2,1,0.4c1,0.4,1.7,0.8,2,1.3
		c0.1,0.2,0.3,0.3,0.5,0.5c0.1,0,0.1,0,0.2,0.1c0.1,0,0.2,0,0.2,0.1h0c0.1,0,0.2,0,0.3,0c0,0,0,0,0,0c0,0,0,0,0,0c0,0,0,0,0,0
		c0.1,0,0.2,0,0.3,0c0.1,0,0.2,0,0.3,0c0.1,0,0.2,0,0.3,0c0.1,0,0.2,0,0.3-0.1c1.3-0.3,2.9-1.2,4.9-2.6c0,0,0,0,0,0
		c0.8-0.6,1.6-1.2,2.5-1.9c0.5-0.4,1-0.8,1.5-1.2c0,0,0,0,0.1,0c2.5-1.9,5-3.3,7.4-4.2c0.4-0.1,0.7-0.3,1.1-0.4
		c0.4-0.1,0.7-0.2,1.1-0.3c0,0,0,0,0.1,0c0.5-0.1,1-0.2,1.4-0.3c0.3,0,0.5-0.1,0.7-0.1c0.2,0,0.3,0,0.4,0c0.1,0,0.1,0,0.2,0
		c0.1,0,0.1,0,0.2,0c0,0,0,0,0.1,0c0.3,0,0.5,0,0.7,0h0.2c0.2,0,0.3,0,0.5,0c0.1,0,0.3,0,0.4,0c0,0,0.1,0,0.1,0
		c0.9,0.1,1.8,0.2,2.7,0.4c0.2,0,0.3,0.1,0.5,0.1c0,0,0.1,0,0.1,0c0.2,0.1,0.4,0.1,0.7,0.2c0,0,0,0,0,0c0.2,0.1,0.3,0.1,0.5,0.2
		c0.1,0,0.2,0.1,0.3,0.1c0.1,0.1,0.2,0.1,0.3,0.1c0,0,0,0,0,0c0.7,0.3,1.3,0.6,1.9,1c0.2,0.1,0.5,0.3,0.7,0.3c0,0,0.1,0,0.1,0
		c0.1,0,0.2,0.1,0.3,0.1c0.1,0,0.2,0.1,0.3,0.1c0,0,0,0,0,0c0,0,0,0,0,0c0,0,0.1,0,0.1,0c0,0,0.1,0,0.2,0c0.1,0,0.3,0,0.4,0.1
		c0.3,0,0.6,0.1,0.9,0.1c0.4,0,0.9,0,1.3,0c0.6,0,1.3-0.2,1.9-0.3c0,0,0,0,0.1,0c0.3-0.1,0.5-0.1,0.8-0.2c0,0,0,0,0.1,0
		c1.4-0.4,2.9-1.1,4.5-1.9c1.1-0.6,2.2-1,3.4-1.4c0.4-0.1,0.8-0.2,1.1-0.3c0.2,0,0.4-0.1,0.7-0.1c0.3-0.1,0.5-0.1,0.8-0.2h0
		c0.7-0.1,1.4-0.2,2-0.3c1.3-0.1,2.6-0.1,3.9,0c0.3,0,0.7,0.1,1,0.1c0.3,0,0.7,0.1,1,0.2h0c0.2,0,0.3,0.1,0.5,0.1
		c0.2,0,0.3,0.1,0.5,0.1c0,0,0,0,0,0c0.4,0.1,0.8,0.2,1.2,0.3c0.2,0.1,0.5,0.1,0.7,0.2c0,0,0,0,0,0c0.8,0.3,1.7,0.6,2.5,1
		c0.3,0.1,0.7,0.3,1,0.5c0.3,0.2,0.7,0.3,1,0.5c0.3,0.2,0.6,0.3,0.9,0.5c5.4,3.3,9.1,8.9,9.1,15.6v6.7l6.9-5.3
		c3.8-3,9.4-5.3,12.9-5.6c0.2,0,0.4,0,0.6,0c0.2,0,0.5,0,0.7,0c0.5,0,1,0.1,1.6,0.3c0.1,0,0.3,0.1,0.4,0.1c0.1,0,0.2,0.1,0.3,0.1
		c0.2,0.1,0.5,0.2,0.8,0.3c1.1,0.4,2.3,1,3.5,1.7c0.2,0.1,0.4,0.2,0.6,0.4c0.2,0.1,0.4,0.3,0.6,0.4c0.2,0.1,0.4,0.3,0.7,0.4
		c0.2,0.1,0.4,0.3,0.6,0.4c0.3,0.2,0.7,0.5,1,0.8c0.6,0.4,1.1,0.8,1.7,1.3c0.3,0.2,0.5,0.5,0.8,0.7c0.5,0.4,1,0.8,1.4,1.3
		c0,0,0,0,0,0c0.1,0.1,0.3,0.3,0.4,0.4c0.1,0.1,0.3,0.3,0.4,0.4c3.9,3.7,6.9,7.9,6.9,10.6c0,0.9,0.2,1.6,0.8,2
		c0.1,0.1,0.1,0.1,0.2,0.2c0.2,0.1,0.3,0.2,0.5,0.3c0,0,0.1,0,0.1,0.1c0,0,0.1,0,0.1,0c0.1,0,0.2,0.1,0.4,0.1
		c0.4,0.1,0.8,0.2,1.3,0.2c1.8,0.2,4.4,0.1,8-0.3h0.1c0.7-0.1,1.4-0.2,2-0.3c0.2,0,0.4-0.1,0.6-0.1c0.3,0,0.5-0.1,0.8-0.1
		c0.3,0,0.5,0,0.8-0.1c1.3-0.1,2.4-0.1,3.4,0c0.2,0,0.3,0,0.4,0c0.5,0.1,1,0.1,1.5,0.3c0.2,0,0.4,0.1,0.6,0.1c0.1,0,0.2,0,0.2,0.1
		c0.2,0.1,0.3,0.1,0.4,0.2c0.1,0,0.2,0.1,0.3,0.1c0.3,0.1,0.5,0.2,0.8,0.3c0.1,0.1,0.3,0.2,0.4,0.2c0.2,0.1,0.3,0.2,0.5,0.3
		c1.8,1.2,3.5,3.1,5.8,6c4,4.6,7.2,9.9,7.2,11.7c0,0.5,0.2,0.9,0.6,1.3c0,0,0.1,0,0.1,0.1c0.2,0.2,0.5,0.3,0.8,0.4
		c0.1,0,0.2,0.1,0.3,0.1c0.2,0.1,0.5,0.2,0.8,0.2c0,0,0.1,0,0.2,0c0.3,0,0.5,0.1,0.8,0.1c1.8,0.2,4.2,0.2,7.3-0.1
		c1.7-0.2,3.4-0.2,5-0.1c0.7,0.1,1.4,0.1,2.1,0.3c0.3,0.1,0.7,0.1,1,0.2c0.3,0.1,0.7,0.2,1,0.3c0,0,0.1,0,0.2,0c0,0,0.1,0,0.1,0
		c0.1,0,0.1,0,0.1,0c0.2,0.1,0.5,0.1,0.7,0.2c0.6,0.2,1.2,0.4,1.7,0.6c0.1,0,0.1,0,0.2,0.1c0.3,0.1,0.5,0.2,0.7,0.3
		c0.2,0.1,0.4,0.2,0.5,0.3c0.1,0.1,0.2,0.1,0.3,0.2c0,0,0,0,0,0c0.3,0.2,0.6,0.3,0.9,0.5c0.1,0.1,0.3,0.2,0.4,0.3
		c0.1,0.1,0.2,0.1,0.3,0.2c0.2,0.1,0.5,0.3,0.7,0.5c0.1,0.1,0.2,0.2,0.3,0.3c0.2,0.1,0.3,0.2,0.5,0.4c0.1,0,0.1,0.1,0.2,0.1
		c0.2,0.2,0.4,0.3,0.6,0.5c0.5,0.4,0.9,0.8,1.4,1.3c0.4,0.4,0.7,0.8,1.1,1.3c2.4,3,3.7,6.8,3.7,11c0,2.5,0.1,4.2,0.4,5.1
		c0,0,0,0.1,0,0.1v0c0.2,0.5,0.4,0.8,0.8,0.9c0,0,0,0,0,0c0,0,0.1,0,0.1,0c0,0,0.1,0,0.1,0c0.1,0,0.2,0,0.3,0c0.6,0,1.3-0.2,2.3-0.7
		c0.1,0,0.2-0.1,0.3-0.1c0,0,0,0,0,0c0.4-0.2,0.8-0.4,1.3-0.7c2-1.1,4.2-1.6,6.4-1.8c0.3,0,0.7,0,1,0c0.3,0,0.6,0,0.9,0
		c0.1,0,0.3,0,0.4,0c0,0,0.1,0,0.1,0c0.8,0.1,1.7,0.2,2.5,0.3c0.5,0.1,1.1,0.3,1.6,0.4c5.5,1.5,10.6,5.3,13.5,10.1
		c0.2,0.4,0.4,0.7,0.6,1.1c0.1,0.2,0.2,0.4,0.3,0.7c0.2,0.5,0.5,1,0.6,1.6c0.1,0.3,0.2,0.5,0.3,0.8c0.1,0.3,0.2,0.7,0.3,1
		c0.3,1.1,0.4,2.2,0.4,3.4c0,2,0.2,3.4,0.5,4.4c0.1,0.2,0.1,0.3,0.2,0.5c0,0,0,0,0,0c0.3,0.5,0.6,0.8,1,0.9c0.1,0,0.2,0,0.3,0.1
		c0.5,0.1,1.2,0,2-0.4c0.1,0,0.2-0.1,0.3-0.1c0.1,0,0.1,0,0.2-0.1c0,0,0,0,0,0c2.4-0.8,5.7-1.5,7.5-1.5c2.1,0,4.8-5.6,6.7-14.4
		c1.6-8,7.5-24,13.1-35.5c10.1-20.6,30.4-48.8,35.2-48.8c1.4,0,2.4,4.3,2.4,9.4c0,14.2,9.4,59.2,17.4,82.7
		c3.7,11.7,13.1,33.1,20.6,47.5l13.9,25.9l5.6-19.2c7.5-26.1,21.1-51,37.6-68.6l13.3-14.4l0.3,35.7c0,42.1,5.3,66.1,22.2,100
		c19.2,39.2,39.5,63,104.5,123C750.3,450.3,760,459.5,768.6,468z"/>
</g>
<g id="layer102">
	<path class="st2" d="M512.3,497.3c49.3,10.1,107.5,36.5,157.8,69.2l29.3-29.3c-30.2-30.1-63.3-56.5-95.1-75
		c-12.3-7.2-16.5-11.7-21.1-21.1c-15.2-33.6-24.5-69.9-27.7-108.6c-0.8-9-1.6-15.2-3-19.5c-0.1-0.4-0.3-0.7-0.4-1.1
		c-0.1-0.3-0.2-0.6-0.3-0.8c-0.1-0.3-0.2-0.5-0.4-0.8c-0.1-0.1-0.2-0.3-0.2-0.4c-0.1-0.1-0.2-0.3-0.3-0.4c-0.1-0.1-0.2-0.3-0.3-0.4
		c-0.1-0.1-0.2-0.3-0.3-0.4c-0.1-0.1-0.2-0.3-0.3-0.4c-0.2-0.2-0.4-0.5-0.6-0.7c-2.6-2.8-6.6-3.6-12.7-3.7c-2.9-0.1-4.9-0.2-6.3-0.8
		c-0.1,0-0.2-0.1-0.4-0.1c-0.1,0-0.2-0.1-0.3-0.1c-0.1,0-0.2-0.1-0.3-0.1c-1.7-1.1-1.9-3.2-1.9-7.4c0-6.8-3.4-12.7-8.6-16.1
		c-0.5-0.4-1.1-0.7-1.6-1c-0.2-0.1-0.4-0.2-0.6-0.3c0,0-0.1,0-0.1,0c-3.3-1.6-7.1-2.3-11.2-1.7c-3.7,0.4-5.9,0.5-7,0
		c-0.1,0-0.1,0-0.2-0.1c-1.2-0.7-1.1-2.2-0.6-5.2c1.7-8.2-4-17-11.5-21.4c-0.3-0.2-0.6-0.3-0.9-0.5c-0.1-0.1-0.3-0.2-0.5-0.2
		c-0.1-0.1-0.3-0.2-0.5-0.2c-3.9-1.8-8.3-2.4-12.3-1.1c-1.8,0.6-3,0.8-3.7,0.5c0,0,0,0,0,0c-0.9-0.5-0.9-2-0.3-5.3
		c0.8-3.5,0-8.8-1.6-12c-1.8-3.2-5.2-6.3-9.2-8.6c-0.2-0.1-0.3-0.2-0.4-0.3c-0.3-0.1-0.5-0.3-0.8-0.4c-0.4-0.2-0.8-0.4-1.2-0.6
		c-0.5-0.3-1-0.5-1.5-0.7c-0.4-0.2-0.8-0.4-1.3-0.5c-4.1-1.6-8.3-2.2-11.4-1.4c-0.9,0.3-1.7,0.5-2.4,0.6c-1.1,0.2-2,0.2-2.6-0.1
		c0,0-0.1,0-0.2-0.1c-0.3-0.2-0.6-0.5-0.8-0.9c-0.5-0.9-0.6-2.4-0.6-4.6c0-1.1-0.1-2.1-0.4-3.1c-0.1-0.3-0.2-0.7-0.3-1
		c-0.1-0.3-0.2-0.5-0.3-0.8c-0.2-0.5-0.4-1-0.6-1.6c-0.1-0.2-0.2-0.4-0.3-0.7c-0.2-0.4-0.4-0.7-0.6-1.1c-0.6-1-1.3-1.9-2-2.7
		c-0.2-0.2-0.3-0.4-0.5-0.5c-0.1-0.1-0.2-0.2-0.2-0.3c-0.2-0.2-0.3-0.4-0.5-0.5c0,0,0-0.1-0.1-0.1c0,0,0,0,0,0
		c-0.1-0.1-0.3-0.2-0.4-0.4c-1-0.9-2.1-1.8-3.2-2.5c-0.3-0.2-0.5-0.3-0.8-0.5c-0.1-0.1-0.2-0.1-0.3-0.2c-0.2-0.1-0.4-0.2-0.6-0.3
		c-0.2-0.1-0.4-0.2-0.6-0.3c-0.4-0.2-0.8-0.4-1.2-0.6c-2.3-1-4.7-1.7-7.1-1.9c0,0-0.1,0-0.1,0c-0.1,0-0.2,0-0.4,0
		c-0.3,0-0.6,0-0.9,0c-0.3,0-0.7,0-1,0c-2.3,0.1-4.5,0.7-6.5,1.8c-0.5,0.3-1,0.5-1.4,0.7c-0.1,0-0.2,0.1-0.3,0.1l0,0
		c-0.9,0.4-1.6,0.6-2.1,0.6c-0.1,0-0.2,0-0.3,0c0,0-0.1,0-0.1,0c-0.1,0-0.2,0-0.3-0.1c0,0-0.1,0-0.1,0c-0.3-0.2-0.5-0.6-0.7-1.1
		c0,0,0-0.1,0-0.1c0,0,0,0,0,0c-0.3-1-0.3-2.6-0.3-4.8c0-4.2-1.4-8-3.7-11c-0.3-0.4-0.7-0.9-1.1-1.3c-0.4-0.5-0.9-0.9-1.4-1.3
		c-0.2-0.2-0.4-0.3-0.6-0.5c0,0-0.1-0.1-0.1-0.1c0,0,0,0-0.1,0c-0.1-0.1-0.3-0.2-0.5-0.4c0,0,0,0-0.1,0c0,0,0,0-0.1,0
		c-0.1-0.1-0.2-0.2-0.3-0.2c0,0,0,0,0,0c-0.1,0-0.1-0.1-0.2-0.1c-0.1-0.1-0.2-0.1-0.2-0.2c-0.1-0.1-0.3-0.2-0.4-0.3
		c-0.1-0.1-0.3-0.2-0.4-0.3c0,0-0.1,0-0.1-0.1c-0.3-0.2-0.6-0.3-0.8-0.5c-0.3-0.1-0.5-0.3-0.8-0.4c-0.7-0.3-1.3-0.6-2.1-0.8
		c-0.5-0.2-0.9-0.3-1.4-0.4c0,0-0.1,0-0.1,0c0,0-0.1,0-0.1,0c0,0-0.1,0-0.2,0c-0.7-0.2-1.3-0.3-2-0.4c-0.7-0.1-1.4-0.2-2.1-0.3
		c-1.6-0.1-3.3-0.1-5,0.1c-3.1,0.2-5.5,0.3-7.3,0.1c-0.3,0-0.5-0.1-0.8-0.1c-0.1,0-0.1,0-0.2,0c-0.5-0.1-0.9-0.2-1.2-0.3
		c-0.1,0-0.3-0.1-0.4-0.2c-0.1,0-0.2-0.1-0.3-0.2c-0.2-0.1-0.3-0.3-0.4-0.4l0,0c-0.2-0.3-0.4-0.6-0.4-1c0-1.8-3.2-7.2-7.2-11.7
		c-0.4-0.5-0.8-0.9-1.2-1.4c-0.1-0.1-0.2-0.2-0.3-0.3c-0.2-0.2-0.3-0.3-0.4-0.5s-0.3-0.3-0.4-0.5c-0.3-0.3-0.5-0.6-0.8-0.8
		c-0.3-0.3-0.5-0.5-0.7-0.8c-0.2-0.2-0.4-0.4-0.6-0.6c-0.2-0.1-0.3-0.3-0.5-0.4c0,0-0.1-0.1-0.2-0.1c-0.5-0.4-1-0.8-1.5-1.1
		c-0.3-0.2-0.6-0.4-1-0.5c-0.1,0-0.2-0.1-0.3-0.1c-0.4-0.2-0.8-0.3-1.3-0.4c-0.5-0.1-1-0.2-1.5-0.3c-0.1,0-0.3,0-0.4,0
		c-1-0.1-2.1-0.1-3.4,0c-0.3,0-0.5,0-0.8,0.1c-0.3,0-0.5,0-0.8,0.1c-0.2,0-0.4,0-0.6,0.1c-0.7,0.1-1.4,0.1-2.1,0.3
		c-3.6,0.3-6.2,0.4-8,0.3c-0.5,0-1-0.1-1.3-0.2c-0.2,0-0.3-0.1-0.5-0.1c0,0-0.1,0-0.1-0.1c-0.2,0-0.3-0.1-0.4-0.2
		c-0.1-0.1-0.2-0.1-0.3-0.2c-0.1-0.1-0.2-0.2-0.3-0.2c-0.4-0.5-0.6-1.1-0.6-1.8c0-1.7-1.1-3.8-2.8-6.1c-0.2-0.3-0.4-0.6-0.7-0.9
		c-0.2-0.3-0.4-0.5-0.7-0.8c-0.8-1-1.7-1.9-2.7-2.8c0,0-0.1-0.1-0.1-0.1c-0.2-0.2-0.4-0.4-0.6-0.6c0,0,0-0.1-0.1-0.1
		c0,0,0,0-0.1-0.1c-0.5-0.4-0.9-0.9-1.4-1.3c-0.7-0.6-1.4-1.1-2.1-1.7c-2-1.5-4.1-2.9-6.1-3.8c-0.1-0.1-0.2-0.1-0.4-0.2
		c-0.1-0.1-0.2-0.1-0.4-0.2c-1.3-0.5-2.4-0.9-3.5-1c-0.2,0-0.5,0-0.7,0c-0.2,0-0.4,0-0.6,0c-3.6,0.3-9.2,2.6-13,5.6l-6.9,5.3l-0.1,0
		v-6.7c0-6.3-3.3-11.6-8.3-15c-0.5-0.4-1.1-0.7-1.7-1.1c-0.3-0.2-0.6-0.4-1-0.5c-0.3-0.2-0.7-0.3-1-0.5c-0.8-0.4-1.6-0.7-2.5-1
		c0,0,0,0,0,0c-0.6-0.2-1.3-0.4-1.9-0.5c0,0,0,0,0,0c-0.2,0-0.3-0.1-0.5-0.1c-0.2,0-0.3-0.1-0.5-0.1c-0.3-0.1-0.7-0.1-1-0.2
		c-0.3,0-0.7-0.1-1-0.1c-1.3-0.1-2.6-0.1-3.9,0c-0.7,0-1.3,0.1-2,0.3h0c-0.3,0-0.5,0.1-0.8,0.2c-0.2,0-0.4,0.1-0.7,0.1
		c-0.4,0.1-0.8,0.2-1.1,0.3c-1.2,0.4-2.3,0.8-3.4,1.4c-1.7,0.9-3.3,1.5-4.7,2c0,0,0,0,0,0c-0.2,0.1-0.5,0.1-0.7,0.2c0,0-0.1,0-0.1,0
		c-0.6,0.1-1.2,0.2-1.7,0.3c-0.5,0-0.9,0-1.3,0c-0.3,0-0.6,0-0.9-0.1c-0.1,0-0.3,0-0.4-0.1c0,0-0.1,0-0.2,0c-0.2,0-0.4-0.1-0.5-0.1
		c0,0,0,0,0,0c-0.2-0.1-0.3-0.1-0.5-0.2c0,0-0.1,0-0.1,0c-0.1,0-0.2-0.1-0.3-0.1c-0.1,0-0.2-0.1-0.3-0.1c-0.3-0.2-0.7-0.4-1.1-0.6
		c-0.3-0.1-0.5-0.3-0.8-0.4c0,0,0,0,0,0c-0.1,0-0.2-0.1-0.3-0.1c-0.1,0-0.2-0.1-0.3-0.1c-0.6-0.2-1.2-0.4-1.8-0.6
		c-0.9-0.2-1.8-0.4-2.7-0.4c0,0-0.1,0-0.1,0c0,0,0,0,0,0c-0.1,0-0.3,0-0.4,0c-0.2,0-0.3,0-0.5,0h-0.2c-0.2,0-0.5,0-0.7,0
		c0,0,0,0-0.1,0c-0.1,0-0.1,0-0.2,0c-0.1,0-0.1,0-0.2,0c-0.1,0-0.3,0-0.4,0c-0.3,0-0.5,0.1-0.7,0.1c-0.5,0.1-1,0.2-1.4,0.3
		c0,0,0,0-0.1,0c-0.3,0.1-0.7,0.2-1.1,0.3c-0.4,0.1-0.7,0.2-1.1,0.4c-2.6,0.9-5.2,2.4-7.8,4.5c0,0,0,0,0,0c-0.4,0.3-0.8,0.7-1.2,1
		c-0.8,0.6-1.5,1.2-2.2,1.7h0c-2.1,1.4-3.8,2.4-5.1,2.8c-0.1,0-0.2,0-0.3,0.1c-0.1,0-0.2,0-0.3,0c-0.1,0-0.2,0-0.3,0
		c-0.1,0-0.2,0-0.3,0h-0.1c-0.1,0-0.1,0-0.2,0c0,0,0,0,0,0c-0.2,0-0.4-0.1-0.5-0.2c0,0,0,0,0,0c-0.2-0.1-0.4-0.2-0.5-0.4
		c-0.2-0.2-0.4-0.5-0.8-0.7c-0.2-0.1-0.3-0.2-0.5-0.3c-0.1,0-0.2-0.1-0.3-0.1c-0.1,0-0.2-0.1-0.3-0.1c-0.4-0.2-0.9-0.3-1.5-0.5
		c-0.5-0.2-1.1-0.3-1.7-0.4c-0.2,0-0.4-0.1-0.6-0.1c-0.2,0-0.4-0.1-0.6-0.1c0,0,0,0,0,0c-0.2,0-0.5-0.1-0.7-0.1s-0.5-0.1-0.8-0.1
		c-0.3,0-0.6-0.1-0.9-0.1h-0.1c-0.6,0-1.2-0.1-1.8-0.1c-0.2,0-0.3,0-0.5,0c-0.2,0-0.4,0-0.6,0c-0.3,0-0.5,0-0.8,0.1
		c-0.3,0-0.5,0.1-0.8,0.1c-0.3,0-0.5,0.1-0.8,0.2s-0.5,0.1-0.8,0.2c-0.3,0.1-0.5,0.1-0.8,0.2c-0.2,0-0.4,0.1-0.5,0.2
		c-0.3,0.1-0.6,0.2-0.9,0.3c-0.2,0.1-0.4,0.2-0.6,0.2c-0.3,0.1-0.6,0.2-0.8,0.4c-0.4,0.2-0.8,0.4-1.2,0.6c-0.5,0.3-1,0.5-1.5,0.8
		c-0.2,0.1-0.5,0.3-0.7,0.4c-0.7,0.4-1.4,0.9-2.1,1.3c-0.1,0-0.1,0.1-0.2,0.1c-3.7,2.6-7.3,6.1-10.2,9.8c0,0,0,0-0.1,0.1
		c-1.2,1.6-2.4,3.3-3.3,5c-2.4,4.2-3.8,8.5-3.8,12.4c0,5.1,1,10.2,2.5,11.4c0,0,0,0,0,0c0,0,0,0,0.1,0c0,0,0.1,0,0.1,0.1
		c1.1,0.8,0.8,2.8-0.7,5.6c0,0,0,0,0,0c-0.6,1.1-1.4,2.4-2.3,3.7c-3.2,4.1-4.6,7.4-4.6,11.6v0c0,1.5,0.2,3.1,0.6,4.9
		c0.5,2.5,0.9,4.5,1.1,6.2v0c0.9,6,0.6,8.3-1.1,15.1c-0.2,0.8-0.3,1.7-0.4,2.6c0,0,0,0,0,0c-0.4,3.4-0.3,7.5,0.2,10.5
		c0,0,0,0.1,0,0.1c0,0.3,0.1,0.6,0.2,0.9c0.9,3.3,4.3,7,8.3,9.8c0.1,0.1,0.3,0.2,0.5,0.3c0.1,0.1,0.2,0.1,0.3,0.2
		c0.1,0,0.1,0.1,0.2,0.1c0.4,0.3,0.9,0.5,1.3,0.8c0,0,0.1,0,0.1,0.1c0.2,0.1,0.5,0.3,0.7,0.4c0.5,0.3,0.9,0.5,1.4,0.7
		c0.2,0.1,0.4,0.2,0.7,0.3c0.1,0,0.1,0.1,0.2,0.1c0,0,0,0,0.1,0c0.1,0,0.2,0.1,0.3,0.1c0.1,0,0.1,0.1,0.2,0.1c0.1,0,0.2,0.1,0.3,0.1
		c0.3,0.1,0.5,0.2,0.8,0.3c0.1,0,0.2,0.1,0.3,0.1c0.1,0,0.3,0.1,0.4,0.1c0.1,0,0.3,0.1,0.4,0.1c0,0,0.1,0,0.1,0
		c0.1,0,0.2,0.1,0.3,0.1c0.1,0,0.2,0,0.3,0c0.2,0,0.5,0.1,0.7,0.1c0,0,0,0,0.1,0c0.1,0,0.3,0,0.4,0c0,0,0.1,0,0.1,0
		c0.1,0,0.2,0,0.3,0h0.1c0.2,0,0.3,0,0.5,0h0.2c0.2,0,0.3,0,0.5,0h0.1c0.3,0,0.6-0.1,0.9-0.1c0.3-0.1,0.6-0.2,0.8-0.3
		c0.9-0.3,1.5-0.6,1.9-0.6l0,0c0,0,0,0,0,0h0.1c0,0,0,0,0,0c0.1,0,0.1,0,0.2,0l0,0c0.7,0.2-0.2,1.6-2.5,4.8
		c-3.5,5.2-4.6,11.4-3.8,17.1c0,0.1,0,0.2,0,0.3c0.8,5.8,3.6,11.1,7.9,14.5c0.3,0.2,0.6,0.4,0.9,0.7c0.2,0.1,0.4,0.3,0.6,0.4
		c0.3,0.2,0.6,0.4,0.9,0.6c0.2,0.1,0.5,0.3,0.7,0.4c0.5,0.2,0.9,0.4,1.4,0.6c0.1,0,0.2,0.1,0.4,0.1c0.1,0,0.1,0,0.2,0.1
		c0.2,0.1,0.4,0.1,0.5,0.2c0.1,0,0.1,0,0.2,0.1c0.1,0,0.3,0.1,0.4,0.1c0,0,0,0,0,0c0.1,0,0.1,0,0.2,0c0.2,0,0.3,0.1,0.5,0.1
		c0,0,0,0,0.1,0c0.1,0,0.2,0,0.2,0.1c0.1,0,0.1,0,0.2,0.1c0.4,0.1,0.8,0.2,1.2,0.2c0,0,0,0,0.1,0c1,0.2,1.9,0.5,2.6,0.7
		c0.1,0,0.2,0.1,0.3,0.1c0.2,0.1,0.4,0.2,0.5,0.3c0.1,0,0.2,0.1,0.3,0.1c0,0,0,0,0,0c1.9,1.2,2.4,3.3,2.5,8c0,0,0,0,0,0
		c0,1.2,0,2.5-0.1,4c-0.1,2.6,0,4.7,0.2,6.5c0,0,0,0,0,0c0.5,5.2,2.2,7.9,6,10.8c0.2,0.2,0.4,0.3,0.7,0.5c0.2,0.1,0.4,0.2,0.5,0.4
		c0,0,0,0,0,0c0.2,0.2,0.5,0.3,0.7,0.5c0,0,0.1,0.1,0.1,0.1c0.1,0,0.1,0.1,0.2,0.1c0,0,0,0,0,0c0.2,0.1,0.4,0.3,0.6,0.4
		c0,0,0.1,0.1,0.2,0.1c0.1,0.1,0.3,0.2,0.4,0.2c0.1,0,0.1,0.1,0.2,0.1c0.2,0.1,0.5,0.2,0.7,0.3c0,0,0.1,0,0.1,0.1
		c0.3,0.2,0.7,0.3,1,0.5c0,0,0.1,0,0.1,0.1c0.5,0.2,0.9,0.4,1.4,0.6c0.6,0.2,1.3,0.5,1.8,0.6c0.2,0.1,0.3,0.1,0.5,0.1
		c0.6,0.2,1.1,0.3,1.6,0.4h0c0.3,0,0.5,0.1,0.7,0.1c0.2,0,0.4,0,0.6,0c0.6,0,1.1,0,1.6,0c0.1,0,0.2,0,0.4,0c0.1,0,0.3,0,0.4,0
		c0.1,0,0.2,0,0.2,0c0.1,0,0.3,0,0.4,0.1c0,0,0,0,0,0c0.3,0.1,0.5,0.1,0.7,0.2c0,0,0.1,0,0.1,0c0.1,0,0.2,0.1,0.3,0.2c0,0,0,0,0,0
		s0,0,0,0c1.3,0.8,1.5,2.6,1.1,6.8c0,0,0,0,0,0c-0.1,1-0.3,2-0.4,3.2c-0.5,3.1-0.7,5.5-0.5,7.6c0,0,0,0,0,0c0.3,3.8,1.8,6.3,5.1,9.8
		c0,0,0.1,0.1,0.1,0.1c0,0,0,0,0,0c0.9,1,1.9,1.8,2.9,2.6c0,0,0,0,0.1,0c0,0,0,0,0,0c0.2,0.1,0.4,0.3,0.6,0.4
		c0.3,0.2,0.6,0.4,0.9,0.6c0.2,0.1,0.4,0.2,0.5,0.3c0.2,0.1,0.4,0.2,0.6,0.3c0.3,0.2,0.7,0.3,1,0.5c0.2,0.1,0.4,0.2,0.6,0.3
		c0,0,0.1,0,0.1,0c0,0,0,0,0,0c0,0,0,0,0.1,0c0,0,0,0,0.1,0c0,0,0.1,0,0.1,0l0,0c0,0,0,0,0,0c0.1,0,0.1,0,0.2,0.1
		c0.1,0.1,0.3,0.1,0.5,0.2c0.2,0.1,0.4,0.1,0.6,0.2c0.1,0,0.3,0.1,0.4,0.1c0,0,0,0,0.1,0c0.1,0,0.2,0.1,0.3,0.1
		c0.1,0,0.3,0.1,0.4,0.1c0,0,0,0,0.1,0c0.3,0.1,0.6,0.1,0.9,0.2c0.3,0.1,0.5,0.1,0.7,0.1c0,0,0,0,0.1,0c0.1,0,0.2,0,0.3,0
		c0.1,0,0.2,0,0.3,0s0.2,0,0.2,0c0.1,0,0.1,0,0.2,0h0.1c0,0,0.1,0,0.2,0c0.2,0,0.4,0,0.5,0c0.8,0,1.5,0,2.1,0c0.4,0,0.8,0,1.1,0.1
		c0.3,0,0.5,0,0.7,0.1c0,0,0,0,0,0c0.1,0,0.3,0,0.4,0.1c0,0,0,0,0.1,0c0.3,0.1,0.6,0.1,0.8,0.2c0.1,0,0.2,0.1,0.3,0.1
		c0,0,0.1,0,0.1,0c0,0,0.1,0.1,0.1,0.1c1.3,0.8,1.2,2.6,0.3,5.9c-0.8,3.1-0.7,6.3,0,9.3c0,0,0,0.1,0,0.1c1.1,4.8,3.7,9.2,7.3,12.6
		c0.7,0.6,1.4,1.3,2.1,1.8c0.5,0.4,1.1,0.8,1.7,1.1c0.2,0.1,0.4,0.2,0.5,0.3c0.1,0.1,0.2,0.1,0.3,0.2l0.3,0.2c0,0,0.1,0.1,0.1,0.1
		c0.2,0.1,0.3,0.2,0.5,0.3c0.1,0,0.1,0.1,0.2,0.1c0.2,0.1,0.3,0.2,0.5,0.2c0,0,0,0,0,0c0.1,0.1,0.3,0.1,0.4,0.2c0,0,0,0,0,0
		c0,0,0,0,0.1,0c0.1,0.1,0.2,0.1,0.4,0.2c0.1,0.1,0.3,0.1,0.4,0.2c0.1,0,0.1,0,0.2,0.1c0,0,0.1,0,0.2,0.1c0.3,0.1,0.6,0.2,0.9,0.3
		c0.3,0.1,0.7,0.2,1,0.3c0.3,0.1,0.7,0.2,1,0.2c0.1,0,0.1,0,0.2,0c0.3,0,0.6,0.1,0.9,0.1c0.3,0,0.5,0.1,0.8,0.1c0.1,0,0.3,0,0.5,0.1
		c0.3,0,0.6,0,1,0h0.1c0.2,0,0.3,0,0.5,0c0.1,0,0.3,0.1,0.4,0.1c0,0,0.1,0,0.1,0c0.1,0,0.2,0.1,0.3,0.2c0.1,0.1,0.2,0.1,0.3,0.2
		c0,0,0,0,0.1,0c0.1,0,0.1,0.1,0.2,0.1c0,0,0,0,0,0c0.1,0.1,0.2,0.2,0.3,0.3c0.1,0.1,0.2,0.2,0.2,0.3c0.1,0.1,0.2,0.3,0.3,0.5
		c0,0,0,0,0,0c0.4,0.7,0.7,1.5,0.9,2.6c0,0.1,0,0.1,0,0.2c0.1,0.4,0.1,0.8,0.2,1.3c0,0,0,0,0,0c0,0.1,0,0.2,0,0.3v0h0c0,0,0,0,0,0
		v0.1c0,0.5,0.1,1.1,0.1,1.7c0,0.4,0,0.8,0,1.2v0.3c0,0.1,0,0.3,0,0.4c0,0,0,0,0,0c0,0.1,0,0.1,0,0.2v0c0,0.2,0,0.3,0,0.5
		c0,0,0,0,0,0c0.6,12.8,10.7,22.3,22.4,21c7.8-0.8,8.5-0.3,7.5,5.9l-1.1,6.9l-15-7.5c-8.3-4-21.3-9.1-29.1-11.2
		c-8.8-2.4-12.1-3.2-17.2-1.7c0,0,0,0,0,0c-3,0.9-6.5,2.7-12.1,5.4c-1.9,1-4.2,2.3-6.7,3.8c-0.2,0.1-0.3,0.2-0.4,0.3
		c-10.1,6.2-23.5,16.1-33,24c-0.3,0.3-0.6,0.5-0.9,0.8c-0.3,0.3-0.6,0.5-0.9,0.8c-0.1,0.1-0.1,0.1-0.2,0.2
		c-5.7,4.8-9.5,8.7-9.5,10.1c0,0,0,0,0,0.1c0,0.2,0.5,0.5,1.4,0.7c0.1,0,0.3,0.1,0.4,0.1c1.3,0.4,3.2,0.8,5.6,1.2
		c0.3,0.1,0.7,0.1,1.1,0.2c0.5,0.1,1,0.1,1.5,0.2l0,0c3.2,0.5,7,0.8,11,1.1l0.2,0c0.4,0,0.8,0,1.1,0.1c23.7,2,46.9,5.9,69,11.9
		c0.7,0.2,1.3,0.3,1.9,0.5c0.1,0,0.3,0.1,0.4,0.1c0.9,0.3,1.9,0.5,2.8,0.8c18.4,5.2,36.1,11.8,52.5,19.8c2.2,1,4.3,2.1,6.1,3.1
		c0,0,0.1-0.1,0.1-0.1c0.2-0.2,0.4-0.3,0.5-0.5c0.6,0.6,1.2,1.2,1.8,1.8c0.2,0.2,0.3,0.3,0.5,0.5c5,2.9,8.3,5.4,8.4,6.4
		c0,0.1,0,0.3-0.1,0.3c-0.2,0.2-0.5,0.4-0.9,0.7c17.9,18,35.8,36.1,53.8,54.1c45.9,46.2,91.9,92.5,137.8,138.7l14-14.1l57.6-57.6
		l35-35c-75.1-53.6-150.4-83.3-235.2-94l-16-1.9l10.7-2.1C425.9,489.8,483.5,491.4,512.3,497.3z M335.6,451.8
		c-1.6,2.7-2.7,2.7-4.3,0.3c-1.1-1.6-1.4-3.7-0.5-4.6c0.4-0.4,0.8-0.6,1.1-0.8c1.2-0.6,2.4-0.3,3.2,0.4
		C336.2,448.1,336.7,449.9,335.6,451.8z M359,488.3l-7.2-11.7l7.8-1.1c1.7-0.3,3.1-0.4,4.1-0.5h0c0,0,0,0,0,0c0,0,0,0,0,0h0
		c0,0,0,0,0.1,0c1.3,0,2,0.2,2.3,0.8c0.3,0.7,0.2,1.8-0.4,3.4c-0.8,2.7,0.2,8.5,2.7,12.8C374.5,504.9,367,501.7,359,488.3z"/>
</g>
<g id="layer104">
	<path class="st3" d="M609.3,627.3l-57.6,57.6l-14,14.1c-45.9-46.3-91.9-92.5-137.8-138.7C462.7,554.8,541.6,580.3,609.3,627.3z"/>
	<path class="st3" d="M310.5,485.4c-30.2-12-64-20-100.6-23.8l-30.7-3.2l8.8-8.3c12.3-11.7,24-14.9,50.1-13.6
		c18.7,1.1,25.1,2.7,41.9,11c18.4,9.1,43.7,30.2,49.9,41.9C332.1,493.7,329.5,493.1,310.5,485.4z"/>
</g>
<g id="layer105">
	<path class="st4" d="M617,534.5c-30.9-16-70.7-30.7-101.3-37.9c-29.6-6.7-94.2-8-122.4-2.1c-22.2,4.3-27,1.9-25.4-13.3
		c0.8-9.6,0.8-9.6-6.7-6.9c-6.2,2.1-9.1,1.6-14.7-2.7c-5.9-4.3-7.2-7.8-7.2-16.3c0-10.1-0.5-11-5.9-9.4
		c-15.8,3.7-30.2-10.7-24.8-24.8c2.1-5.6,1.9-5.9-4.8-4c-13.9,4-27.2-6.7-27.2-21.6c0-4.8-1.4-7.5-4-7.5c-13.3,0-24.8-14.7-21.6-28
		c1.6-5.9,0.8-6.7-5.9-6.7c-4.6,0-10.1-2.7-13.9-6.7c-5.1-5.3-5.9-8.5-4.6-17.4c1.4-9.9,0.8-10.7-4.8-10.7c-3.2,0-8.8-2.4-12.3-5.1
		c-5.1-4-6.4-7.5-6.2-17.4c0.3-11.2-0.3-12.3-7.5-13.6c-14.2-3.2-20.3-22.4-11.5-35.5c3.5-4.8,3.7-5.6,0.3-4.3
		c-6.2,2.4-20-6.4-21.9-13.6c-0.8-3.7-0.8-10.1,0-14.2c2.1-8.8,2.1-10.1,0-21.3c-1.4-6.9-0.3-11,4-16.5c3.2-4.6,4.6-8.3,3-9.4
		c-1.6-0.8-2.7-6.2-2.7-11.5c0-13.9,17.9-32.5,30.9-32.5c4.8,0,9.6,1.4,10.4,2.7c1.1,1.6,4.8,0,9.9-4c8-6.9,16.5-8.5,23.2-4.3
		c2.1,1.4,7.2,1.1,12.6-1.4c14.2-5.9,30.4,3,30.4,16.5v6.7l6.9-5.3c4-3.2,10.1-5.6,13.6-5.6c7.2,0,22.2,13.3,22.2,19.5
		c0,3,2.7,3.5,11.5,2.7c10.4-1.4,12.3-0.5,18.7,7.2c4,4.6,7.2,9.9,7.2,11.7c0,2.1,3.7,2.7,11,2.1c13.1-1.4,23.8,6.9,23.8,18.4
		c0,7.2,0.3,7.2,7.8,4.8c12.3-4.3,27,5.6,27,18.1c0,5.9,0.8,6.4,6.9,5.1c5.1-1.4,9.4,0,16.3,5.3c8,6.2,9.1,8.3,8.3,16.8
		c-0.8,9.6-0.8,9.6,8,8.8c15.8-1.9,27,11.2,21.6,25.6c-1.9,5.1-1.6,5.3,4.3,2.7c13.3-6.2,30.2,8.3,26.4,22.9
		c-1.4,5.3-0.5,5.9,8.3,4.8c14.7-1.6,20,4.6,20,23.5c0,19,6.4,53.1,14.7,79.8c8.3,26.1,36.6,83,56.5,113.7l15.8,24L617,534.5z"/>
</g>
<g id="layer106">
	<path class="st5" d="M609.3,530.5c-13.6-6.4-37.9-16.5-53.9-22.2c-28.6-10.1-29.3-10.7-28.8-18.1c0.5-7.2,0.3-7.5-9.6-6.7
		c-8.3,0.8-11.2-0.3-15.5-5.9l-5.6-6.9l-1.1,9.1c-1.1,8.8-0.8,8.8,8.5,7.8c5.9-0.8,11.5,0.3,14.7,2.7c8,6.2,3.2,8-12,4.8
		c-7.5-1.6-23.8-3.7-36.3-4.8c-21.9-1.6-22.9-1.9-21.6-7.8c0.8-5.3,0.3-5.6-5.3-3.5c-12.8,4.8-26.1-5.6-25.6-20.3
		c0.3-8.5,0-8.8-8.5-7.5c-7.2,1.1-10.4,0-15.8-5.3c-6.2-6.2-6.9-6.4-6.9-1.9c0,2.7-0.8,6.9-1.9,9.4c-1.4,4-0.8,4.3,4,1.6
		c13.1-6.9,28.6,4.3,26.7,19.2c-1.1,9.1-0.8,9.1,8.5,8c5.6-0.8,11.2,0.3,14.4,2.7c4.6,3.5,3.5,4-13.3,5.6c-10.1,0.8-25.4,3-33.6,4.8
		c-19.2,3.5-24.3,0.5-22.9-14.2c0.8-9.6,0.8-9.6-6.7-6.9c-6.2,2.1-9.1,1.6-14.7-2.7c-5.9-4.3-7.2-7.8-7.2-16.3
		c0-10.1-0.5-11-5.9-9.4c-15.8,3.7-30.2-10.7-24.8-24.8c2.1-5.6,1.9-5.9-4.8-4c-13.9,4-27.2-6.7-27.2-21.6c0-4.8-1.4-7.5-4-7.5
		c-13.3,0-24.8-14.7-21.6-28c1.6-5.9,0.8-6.7-5.9-6.7c-4.6,0-10.1-2.7-13.9-6.7c-5.1-5.3-5.9-8.5-4.6-17.4
		c1.4-9.9,0.8-10.7-4.8-10.7c-3.2,0-8.8-2.4-12.3-5.1c-5.1-4-6.4-7.5-6.2-17.4c0.3-11.2-0.3-12.3-7.5-13.6
		c-14.2-3.2-20.3-22.4-11.5-35.5c3.5-4.8,3.7-5.6,0.3-4.3c-6.2,2.4-20-6.4-21.9-13.6c-0.8-3.7-0.8-10.1,0-14.2
		c2.1-8.8,2.1-10.1,0-21.3c-1.4-6.9-0.3-11,4-16.5c3.2-4.6,4.6-8.3,3-9.4c-1.6-0.8-2.7-6.2-2.7-11.5c0-8,2.1-12,11-21.3
		c11.2-11.5,20.3-14.2,29.1-8.5c2.7,1.6,5.6,1.1,9.4-2.4c7.2-6.4,16.5-8.5,24.8-5.3c4.6,1.9,7.8,1.6,9.6-0.3
		c1.4-1.4,6.7-2.7,11.5-2.7c11.2,0,19.5,8,19.5,19.2c0,8,0.3,8,5.1,3.7c4.6-4,15.5-5.9,27-4c2.7,0.5,4.3,4.3,4.8,12.3
		c0.8,11.2,0.5,11.5-7.5,11.5c-4.3,0-8,1.1-8,2.7c0,1.4,1.9,2.7,4,2.7c6.4,0,12.8,12.3,11.5,22.7c-1.1,8.8-0.8,9.1,3.7,4.8
		c5.3-4.8,6.2-14.4,1.9-22.4c-6.9-13.1,17.6-19,25.9-6.2c4.3,6.2,4.3,7.5,0.3,16c-3.7,7.5-5.9,9.1-13.1,9.4c-4.8,0-6.9,0.8-4.8,1.6
		c15.8,5.9,21.1,25.6,10.4,39.2c-6.7,8.5-22.9,9.9-29.9,2.1c-5.9-6.4-5.9-21.3,0.3-28.3c4-4.8,3.7-4.8-3.2,0.5
		c-12.3,9.4-23.2,7.5-29.9-5.3c-2.4-4.6-3.2-10.1-2.1-13.6c1.6-5.6,1.4-5.6-3.2-1.4c-3.7,3.7-4,5.3-1.4,8.5c2.1,2.4,3,8.3,2.4,13.3
		c-0.5,5.3,0,8.5,1.6,7.8c4.8-3.2,18.1-1.1,23.2,3.5c3.2,3,5.1,8,5.1,14.7c0,8.5,0.8,9.6,5.3,8.5c14.7-3.7,29.1,11,24,24.5
		c-1.9,4.8-1.1,5.3,9.9,5.3c10.1,0,13.1,1.4,17.6,7.5c4.8,6.2,5.3,8.5,2.7,15.2c-2.7,7.2-2.7,7.8,1.9,5.3c8.3-4.6,16-3,23.2,4.3
		c5.3,5.3,6.4,8.5,5.3,15.2c-1.4,8.5-1.4,8.5,8.8,7.8c13.6-1.4,22.4,6.7,20.8,19.5c-1.1,8.5-0.8,8.8,7.2,7.5
		c5.6-0.8,10.1,0.5,15.5,4.8c6.4,4.8,7.5,7.5,6.7,15.5c-0.8,9.6-0.8,9.6,9.1,8.8c13.6-1.4,21.6,6.9,20.3,20.6
		c-0.8,9.9-0.8,9.9,6.2,7.2c12.8-4.6,28.3,10.7,24.8,24.3c-1.4,4.6-0.3,5.1,6.7,4c15.8-2.1,28.6,13.1,21.9,25.9
		c-3,5.1-2.4,5.1,4.8,2.7c14.9-5.3,30.4,8.8,25.9,23.5c-1.4,4.6-0.5,4.8,8,4c13.9-1.6,23.5,7.8,21.6,21.3c-1.4,9.4-1.1,9.9,3.7,7.2
		c3-1.4,7.5-1.9,10.4-1.1c5.3,1.6,16,14.7,16,19.7C634.1,541.2,622.9,537.1,609.3,530.5z M493.8,455.8c-2.4,0.8-6.2,1.6-8.3,1.6
		c-3,0-2.1,1.6,2.1,5.1c5.9,4.8,6.7,4.8,8.3,0.8C498.9,456,498.3,453.9,493.8,455.8z M465.8,452c-1.9,8.5-1.6,8.5,6.4,6.7l6.7-1.9
		l-5.9-5.6l-5.6-5.9L465.8,452z M458.3,427.5c-8,0.8-11.7-0.3-16-4.6c-4-4-5.6-4.6-5.6-1.9c0,2.1-0.5,5.3-1.4,7.5
		c-1.1,2.7,1.1,3.5,9.1,2.7c8.3-0.8,11.5,0.3,15.5,4.6l4.8,5.9l1.9-6.2c0.8-3.5,1.6-6.7,1.9-7.5
		C468.8,427.2,463.9,426.9,458.3,427.5z M431.1,400.6l-6.9,1.4l5.6,5.6l5.6,5.9l1.6-6.7C438.8,398.4,439.4,399,431.1,400.6z
		 M406.5,396.5c-2.4,6.9-2.1,7.2,6.7,5.6l7.2-1.4l-5.9-4.8C408.9,391.2,408.7,391.2,406.5,396.5z M400.9,371.5
		c-16.5,1.9-28.3-10.4-22.9-24.5c2.1-6.2,2.1-6.2-5.3-3.5c-6.2,2.4-6.9,3.5-4,5.6c5.1,4,9.4,16,7.8,22.2c-1.4,4.3,0,4.8,9.1,4
		c8.8-0.8,11.2,0,16,6.2l5.6,6.9l1.1-8.8c0.5-4.8,1.4-8.8,1.4-8.8C409.7,370.4,406,370.9,400.9,371.5z M378.2,422.1
		c-8,0.8-11.5-0.3-15.8-4.8l-5.3-5.6l-1.1,7.5c-1.1,7.2-0.5,7.5,8,6.7c6.4-0.8,10.7,0.5,15.2,4.8l6.2,5.9l1.4-6.4
		c0.5-3.2,1.4-6.7,1.6-7.5C388.4,421.9,384.1,421.6,378.2,422.1z M349.2,333.6c-2.7-5.1-3-4.6-3,4c-0.3,9.4,0,9.4,8.3,8.3
		c8-1.4,8.3-1.6,3.2-4C354.5,340.5,350.5,336.8,349.2,333.6z M350.3,395.2c-12.6,1.9-24-8.8-22.4-21.3c0.8-8.3,0.5-8.5-7.5-7.8
		c-4.8,0.5-11-0.3-13.9-1.9c-4.6-2.4-6.2-2.1-8.3,1.9c-2.1,4-1.4,4.6,7.5,3.7c8.5-0.8,11.2,0.3,16,6.4c4.3,5.3,5.6,9.9,4.6,14.7
		c-1.4,6.7-0.8,6.9,9.6,6.7c8,0,11.7,1.4,15.5,5.9l5.1,6.2l1.1-7.5c0.5-4.3,1.4-7.8,1.6-8C359,393.9,355.3,394.4,350.3,395.2z
		 M338.2,315.5c-8.5,0.8-11.2-0.3-15.5-5.9l-5.6-6.9l-1.1,8.8c-0.8,8.5-0.8,8.5,9.4,7.5c6.9-0.5,11.7,0.5,15.2,3.7
		c5.1,4.6,5.3,4.6,7.8-6.7C348.4,315.2,344.1,314.9,338.2,315.5z M310.8,288.5l-7.2,1.4l5.9,4.8c5.6,4.8,5.9,4.8,7.5-0.8
		C318.8,286.4,319.3,286.9,310.8,288.5z M287,284c-1.9,8.3-2.4,7.8,5.9,6.2l6.9-1.4l-5.6-5.6l-5.6-5.9L287,284z M280.3,259.4
		c-7.2,0.8-11-0.3-16-5.1c-5.1-4.8-6.4-5.1-6.4-1.9c0,2.4-0.8,6.4-1.6,8.5c-1.4,3.7-0.5,4,4.8,1.9c7.5-2.7,23.2,2.7,23.8,8.3
		c0.3,1.9,1.4-0.3,2.4-4.6c1.1-4.6,2.1-8,2.4-8C289.7,258.4,285.7,258.9,280.3,259.4z M253.1,231.2l-7.5,3l5.3,5.6l5.6,5.6l1.6-8
		c1.1-4.6,1.9-8.3,2.1-8.5C260.4,228.5,257.2,229.8,253.1,231.2z M229.4,231.2c-3.2,3.5-2.7,3.7,4.8,2.7c7.2-1.1,7.8-1.6,3.7-3.7
		C234.8,228.2,232.3,228.5,229.4,231.2z"/>
	<path class="st5" d="M618.9,516.1c-5.3-0.3-14.2-11.5-14.2-18.4c0-5.9,4.3-2.7,10.1,7.8C618.1,511.3,619.9,516.1,618.9,516.1z"/>
	<path class="st5" d="M593.6,488.9c-16-1.6-22.4-18.4-12-32.8c3.7-4.8,4.6-4,12.3,11.5c4.6,9.1,8.3,17.6,8.3,19.2
		C602.1,488.6,598.6,489.4,593.6,488.9z"/>
	<path class="st5" d="M576.2,457.4c-8.5,6.7-18.4,5.3-25.4-3.2c-6.9-8-5.9-16.8,3.5-27.5c11.5-13.1,16-12,23.2,5.3
		C585,450.4,585,450.4,576.2,457.4z"/>
	<path class="st5" d="M553.6,421.4c-10.1,19-36.8,14.2-36.8-6.7c0-9.4,14.2-26.7,21.6-26.7C551.7,388,561,408,553.6,421.4z"/>
	<path class="st5" d="M552.5,376.6c-11.7,4.6-20.3-17.4-9.1-23.2c9.1-4.8,13.3-1.4,13.3,10.7C556.8,371.5,555.4,375.5,552.5,376.6z"
		/>
	<path class="st5" d="M527.4,345.3c-9.6,9.6-18.7,5.1-18.7-9.6c0-6.9,1.4-9.1,7.5-11.2C531.2,319.4,538.9,333.8,527.4,345.3z"/>
	<path class="st5" d="M521.3,397.6c-12.3,14.2-33.9,6.9-33.9-11.7c0-6.7,2.1-11.2,9.1-18.1c5.1-5.1,10.4-9.1,12.3-9.1
		c1.6,0,6.7,3.5,11,7.8C529.3,376.3,529.8,387.5,521.3,397.6z"/>
	<path class="st5" d="M497.5,317.6c-7.5,6.7-13.9,5.6-17.9-3.5c-5.6-12.6,3-21.9,17.6-19C504.7,296.5,505,310.9,497.5,317.6z"/>
	<path class="st5" d="M491.1,369.1c-14.9,17.6-40.5,3.5-32.8-17.9c2.4-6.7,1.6-6.9-5.6-3.2c-7.5,4-20.3-1.6-24-10.7
		c-4-9.9-2.1-15.8,9.4-26.7c8.3-8,9.9-8.5,15.8-5.9c11.2,5.1,16.3,15.2,12.8,26.1l-2.7,9.1l7.5-4.6c9.6-5.6,20-1.9,24,8.8
		C499.6,354.9,498.6,360.3,491.1,369.1z"/>
	<path class="st5" d="M468.7,289.3c-6.9,6.9-12,6.7-17.1-0.5c-5.6-7.8-5.3-13.6,0.5-19C466.9,256.5,482.6,275.5,468.7,289.3z"/>
	<path class="st5" d="M438.1,261.3c-8,8.3-10.7,8.3-15.8,0.8c-8-11.2-4-22.7,8.3-24.8C444.7,235.1,449.5,250.1,438.1,261.3z"/>
	<path class="st5" d="M435.4,307.2c-6.4,14.9-21.1,18.7-32,7.5c-3.7-3.5-6.7-9.4-6.7-13.1c0-9.9,14.7-25.6,23.8-25.6
		C434,276,441.8,292.2,435.4,307.2z"/>
	<path class="st5" d="M414,224.5c-3,4-6.9,6.2-12.3,6.2c-9.9,0-12.8-6.4-7.5-15.8c3.2-5.3,6.2-6.9,13.1-6.9
		C418.3,207.9,421,214.6,414,224.5z"/>
	<path class="st5" d="M401.2,286.1c-13.6,12.8-35.5,3.7-33.4-14.2c1.1-8.5,0.8-8.8-8-7.5c-6.7,1.4-10.1,0.3-15.2-4.6
		c-10.1-9.6-8.8-20.8,3.5-32.8c9.1-8.8,11.2-9.9,17.4-7.5c9.1,3.5,13.3,11.7,12,24l-0.8,9.9l7.2-4c6.7-4,7.8-3.7,14.7,1.4
		C408.9,258.6,410.6,277.3,401.2,286.1z"/>
	<path class="st5" d="M379.3,205.3c-9.9,10.1-18.4,8.8-22.2-3c-2.7-8.8-2.1-10.1,3.5-16c6.9-6.9,17.1-8.3,22.2-3.2
		C387.9,188.2,386.5,198.3,379.3,205.3z"/>
</g>
<g id="layer107">
	<path class="st6" d="M582.9,517.4c-16.8-4.8-20.8-7.2-17.9-11c6.4-8,23.8-1.6,23.8,8.5C588.8,517.9,587.2,518.7,582.9,517.4z"/>
	<path class="st6" d="M554.9,499.8c-4.3,5.1-5.9,5.3-16,2.7c-9.6-2.7-11.5-4.3-11.5-9.6c0-6.9,10.7-19.5,16.5-19.5
		c6.7,0,15.5,8.3,15.5,14.4C559.4,491.2,557.3,496.6,554.9,499.8z"/>
	<path class="st6" d="M523.1,473.1c-11.7,13.9-25.1,9.1-25.1-8.8c0-14.2,18.4-22.9,27.7-13.3C531.9,456.9,531.2,463.8,523.1,473.1z"
		/>
	<path class="st6" d="M496.7,441.6c-1.9,3.7-6.9,8.3-11,10.1c-6.4,2.7-8,2.7-12-1.6c-8-8.3-7.8-19.5,0.8-27.5
		C488.7,409.6,506,424.3,496.7,441.6z"/>
	<path class="st6" d="M482.9,485.9c-1.9,5.1-35.5,4.8-35.5-0.3c0-7.5,13.3-20.3,21.3-20.3C479.7,465.4,486.8,476.1,482.9,485.9z"/>
	<path class="st6" d="M469.2,408.6c-1.1,6.9-12.6,16.8-19.5,16.8c-5.3,0-13.1-9.6-13.1-16.3c0-2.4,2.7-7.5,5.6-11.5
		c4.6-5.9,7.5-6.9,15.2-6.4C467.4,392,471.1,397.4,469.2,408.6z"/>
	<path class="st6" d="M451.4,463.3c-8.3,14.9-27,18.4-31.8,5.9c-4.8-12.8,6.2-33.1,18.1-33.1C451.1,436,458.3,450.4,451.4,463.3z"/>
	<path class="st6" d="M439.4,337.3c-1.6,0-3.5-1.9-4.6-4c-2.4-6.4,0.3-7.2,4-1.4C441,335.4,441,337.3,439.4,337.3z"/>
	<path class="st6" d="M431.1,391.7c-4.6,3.7-9.4,6.9-10.7,6.9c-4.8,0-13.1-11-13.1-17.4c0-7.8,10.7-20,17.4-20
		C441.3,361.3,445,380,431.1,391.7z"/>
	<path class="st6" d="M421.5,489.1c-1.6,0-5.3,1.1-8,1.9c-3.7,1.4-4,1.1-1.9-1.4c1.9-1.9,5.3-3,8-2.1
		C422.6,488.3,423.4,488.9,421.5,489.1z"/>
	<path class="st6" d="M415.6,441.6c-9.1,8.8-16.3,9.9-22.4,3c-11-12-0.3-35.2,16.3-35.2c9.9,0,13.9,4.6,13.9,15.5
		C423.4,431.2,421.2,436,415.6,441.6z"/>
	<path class="st6" d="M413.2,309.1c-5.3,3.2-11.7-3.7-8.5-9.1c2.1-3.5,2.7-3.5,2.7,0.5c0,2.4,2.1,4.8,4.8,5.3
		C415.6,306.6,415.9,307.2,413.2,309.1z"/>
	<path class="st6" d="M403.3,362.7c-7.8,8-14.9,8.5-20.8,1.9c-13.3-14.7,5.1-38.9,21.1-28.6C412.2,341.6,412.2,354.2,403.3,362.7z"
		/>
	<path class="st6" d="M401.5,485.9c-2.7,5.3-16,11.5-25.4,11.5c-4,0-8.8-8.5-8.8-15.8c0-8.5,12.8-21.6,21.3-21.6
		C402.5,460.1,408.4,471.8,401.5,485.9z"/>
	<path class="st6" d="M387.3,411.5c-8.5,10.1-15.8,12-23.2,6.2c-8.3-6.9-7.5-19.7,1.9-29.6c8.8-9.1,17.1-10.1,23.5-3.2
		C395.9,391.7,395.1,402.4,387.3,411.5z"/>
	<path class="st6" d="M381.2,281c-6.9,0.3-10.7-6.7-6.2-11.2c2.1-2.1,3-1.6,3,2.7c0,3.2,2.1,6.4,4.8,6.9
		C386,280.5,385.7,280.8,381.2,281z"/>
	<path class="st6" d="M375.3,332.5c-6.7,8.5-14.2,10.7-21.1,5.6c-7.8-5.3-7.5-19.5,0.5-27C371.1,295.7,389.5,314.9,375.3,332.5z"/>
	<path class="st6" d="M373.4,454.7c-8,21.9-35.5,22.7-35.5,1.1c0-11,12-25.1,21.1-25.1C370.2,430.7,377.7,443.2,373.4,454.7z"/>
	<path class="st6" d="M360.6,380.3c-4.3,7.8-16,13.9-22.7,11.7c-5.9-1.9-11.7-15.2-9.6-22.2c2.7-8.3,14.2-17.4,21.9-17.4
		C363.1,352.6,368.4,366.1,360.6,380.3z"/>
	<path class="st6" d="M353.5,253.3c-2.4,1.1-5.9,1.1-7.5,0c-3.5-2.1-3.5-11.2,0-13.3c1.6-0.8,1.9,0.3,1.1,2.4
		c-1.1,3,0.5,5.1,4.6,6.7C357.2,251.2,357.4,251.7,353.5,253.3z"/>
	<path class="st6" d="M344.4,305c-3.7,4.6-9.1,8.3-11.7,8.3c-14.2,0-18.4-22.4-6.4-31.8c8.8-6.9,14.9-7.2,20.6-0.8
		C353.2,287.7,352.4,295.7,344.4,305z"/>
	<path class="st6" d="M343.3,426.9c-3,7.2-15.2,17.1-21.3,17.1c-6.4,0-13.9-9.4-13.9-17.4c0-4,3.2-10.4,7.5-14.9
		c9.1-9.6,20.3-10.4,26.1-1.9C346.5,416.6,346.8,418.9,343.3,426.9z"/>
	<path class="st6" d="M332.7,349.6c-5.3,13.1-22.2,18.4-30.2,9.6c-6.4-7.2-5.6-17.6,2.4-27C319.9,314.4,341.4,328,332.7,349.6z"/>
	<path class="st6" d="M328.1,223.4c-0.8,1.1-4.6,1.9-8,1.9c-4.8,0-6.2-1.6-6.2-6.4c0-3.7,1.1-7.2,2.1-8c1.4-0.8,2.1,1.4,2.1,4.6
		c-0.3,4.6,1.4,5.9,5.9,5.6C330.5,220.7,330.8,221,328.1,223.4z"/>
	<path class="st6" d="M319,274.1c-1.4,2.4-6.2,6.4-10.7,8.5c-7.5,4-8,3.7-14.7-2.7c-5.3-5.3-6.4-8.5-5.1-14.2
		c2.7-11,9.1-16.5,19-16.5C320.1,249.3,326,262.1,319,274.1z"/>
	<path class="st6" d="M309.2,405.6c-7.2,9.1-15.5,12.6-21.9,9.1c-5.6-3-10.7-12.8-10.7-20.3c0-5.9,16.3-19.7,23.2-19.7
		C312.9,374.7,318.8,393.9,309.2,405.6z"/>
	<path class="st6" d="M303.3,320.3c-3,7.2-15.2,17.1-21.3,17.1c-6.9,0-13.3-8.8-13.3-17.9c0-6.2,2.4-10.4,9.4-16.5
		c11.5-9.9,13.1-10.1,21.3-1.6C306.2,308.2,307.1,311.2,303.3,320.3z"/>
	<path class="st6" d="M297.4,195.4c-8,8-18.7,0.5-13.1-9.4c2.4-4.3,2.7-4.3,3,1.6c0,5.1,1.1,6.2,6.7,5.1
		C301.7,191.1,301.7,191.1,297.4,195.4z"/>
	<path class="st6" d="M284.9,249.6c-9.6,9.6-17.4,9.9-23.2,1.1c-5.1-7.8-3.5-17.6,4.3-25.4c6.7-6.7,14.7-6.7,21.3,0
		C294.7,232.8,294,240.5,284.9,249.6z"/>
	<path class="st6" d="M285.7,369.9c-4.8,8.8-11.5,12.8-21.9,12.8c-6.2,0-8.5-1.6-11.2-7.8c-4-9.9-1.4-18.7,7.8-26.1
		c8.5-7.2,19.2-7.8,25.1-1.4C291,353.6,291,360.3,285.7,369.9z"/>
	<path class="st6" d="M272.6,293.1c-4.8,9.4-11.5,14.7-18.7,15.2c-4.6,0.3-4,0.8,1.9,3.2c8.8,3.5,11.5,12.8,6.4,22.7
		s-9.6,13.6-19.5,15.5c-6.7,1.4-9.1,0.3-12.6-4.6c-8.3-12-5.3-22.4,9.9-33.1c4.3-3,5.1-4.6,2.4-7.2c-2.4-2.4-4.6-1.9-9.4,2.7
		c-3.5,3.2-9.6,6.4-14.2,7.5c-7.2,1.4-8.5,0.5-13.1-7.8c-4.3-8-4.6-10.4-1.4-17.6c1.9-4.6,4.3-8.3,5.6-8.3c1.4,0,2.4-1.9,2.4-4.3
		c0-3-1.4-3.7-4.6-2.4c-15.5,6.2-19.5,6.4-23.5,0.5c-6.2-9.1-5.1-22.4,2.7-29.1c8.5-7.5,6.2-10.7-6.4-8.5c-7.5,1.1-11.2,0.5-14.4-3
		c-5.1-4.8-5.9-15.2-1.9-22.4c1.6-3.2,1.4-7.8-0.8-13.3c-2.7-7.5-2.4-9.9,2.7-19.2c3.2-5.6,4.6-11,3.2-12c-1.4-0.8-2.4-6.2-2.4-11.7
		c0-8.8,1.4-11,9.6-16.3c9.1-5.3,10.4-5.6,16.8-2.1c14.2,8,7.2,34.1-8.8,34.4c-5.1,0.3-5.1,0.5-1.1,3c5.9,3.5,16.5,0.5,22.4-5.9
		c5.1-5.6,17.1-6.7,21.9-1.9c5.6,5.6,3.7,20.6-3.5,27.5c-7.5,7.5-15.2,8.5-20,2.7c-3.2-3.7-4.3-3.5-10.7,2.7
		c-3.7,3.7-8.5,6.7-10.7,6.7c-2.7,0-3,0.8-0.8,3c2.1,2.1,5.9,1.6,13.1-1.9c15.5-7.5,25.9-4.3,28.3,8.3c1.6,8-6.2,21.6-13.9,24
		c-3.7,1.1-5.1,2.7-3.2,4.6c1.6,1.6,6.4,0.8,13.6-2.1c10.1-4,11.5-4,17.6,0c9.1,6.2,9.4,20.6,0,29.6c-3.5,3.7-7.8,6.7-9.4,6.7
		c-1.4,0-2.7,1.1-2.7,2.7c0,5.3,10.7,2.4,19.5-5.3c11-9.6,21.3-10.4,27-2.1C277.7,281.3,277.7,283.5,272.6,293.1z"/>
	<path class="st6" d="M265.4,169c-8.3,3.2-14.2-2.4-11.2-10.7l2.1-6.4l1.6,6.7c1.4,4.8,3.2,6.4,7.5,6.2
		C272.9,163.9,272.9,166,265.4,169z"/>
	<path class="st6" d="M260.9,213.3c-2.7,6.2-10.1,13.1-17.1,15.5c-6.4,2.4-15.2-6.9-15.2-16.3c0-16,21.9-25.6,30.4-13.3
		C263.8,205.8,263.8,205.8,260.9,213.3z"/>
	<path class="st6" d="M234.5,146.1c-7.2,6.7-13.6,5.6-15.5-2.7c-2.1-8.3,1.6-15.2,8.5-16.3c4.8-0.8,4.8-0.5,0.5,2.1
		c-2.7,1.6-4.8,5.3-4.8,8c0,7.5,10.1,6.9,13.3-0.8c2.1-5.6,2.4-5.6,2.4-0.3C239.3,139.1,237.1,143.6,234.5,146.1z"/>
</g>
</svg>
